<svg width="16" height="16" viewBox="0 0 16 16" fill="none" xmlns="http://www.w3.org/2000/svg">
<path fill-rule="evenodd" clip-rule="evenodd" d="M3.11173 11.6239C3.19728 11.4281 3.27844 11.2312 3.36113 11.0344C3.44334 10.8394 3.54255 10.6499 3.62695 10.4556C3.7506 10.1709 3.88275 9.889 4.02502 9.61038C4.10283 9.45905 4.1796 9.30723 4.2493 9.15331C4.32053 8.99615 4.37973 8.83555 4.4501 8.6781C4.49479 8.57803 4.54329 8.47892 4.5918 8.37981C4.63391 8.41982 4.67611 8.46002 4.71698 8.50088C4.86803 8.66607 5.02796 8.82877 5.21749 8.96512C5.36158 9.06881 5.49916 9.17651 5.63666 9.28613C5.70416 9.33988 5.76833 9.39679 5.83641 9.44988C5.845 9.45666 5.85407 9.46258 5.86333 9.46869C6.05162 9.59138 5.99567 9.56331 6.21891 9.63932C6.29148 9.66386 6.37302 9.66061 6.45093 9.66758C6.56847 9.6778 6.75619 9.62566 6.85558 9.57811C7.03891 9.49027 7.16552 9.35211 7.26348 9.20124C7.40766 8.97963 7.5272 8.74589 7.6436 8.51396C7.81279 8.17682 7.96843 7.83518 8.13686 7.49765C8.27617 7.23021 8.41318 6.96209 8.55049 6.69408C8.83789 6.14582 9.15622 5.60902 9.43742 5.05866C9.4885 4.96671 9.54293 4.87629 9.59573 4.78501C9.66295 4.66842 9.7252 4.55022 9.78641 4.43153C9.77848 4.447 9.77056 4.46256 9.76254 4.47803C9.86843 4.27971 9.97193 4.08054 10.0742 3.88089C10.0482 3.93159 10.0222 3.98238 9.99599 4.03308C10.083 3.87621 10.1682 3.71962 10.2503 3.56112L10.2088 3.64151C10.2422 3.57697 10.2775 3.51299 10.3133 3.44931C10.3325 3.50392 10.3532 3.55825 10.3778 3.61134C10.4418 3.74836 10.5169 3.88136 10.5875 4.0159C10.6286 4.09849 10.6698 4.18089 10.7117 4.2631C10.7048 4.24992 10.6982 4.23675 10.6914 4.22367C10.8612 4.55948 11.0007 4.9056 11.1334 5.25258C11.2763 5.62697 11.3967 6.00718 11.5115 6.38786C11.6237 6.75967 11.7391 7.13205 11.8304 7.50787C11.8781 7.70466 11.9267 7.90183 11.9695 8.09957C12.0127 8.30085 12.0491 8.50365 12.1044 8.70302C12.1565 8.89016 12.2143 9.07616 12.2652 9.2634C12.2923 9.36404 12.3169 9.46516 12.3476 9.56513C12.3777 9.6629 12.4094 9.76001 12.4359 9.85854C12.4802 10.022 12.519 10.1863 12.5593 10.3505C12.5534 10.3517 12.5476 10.3532 12.5416 10.3545C12.3024 10.4047 12.068 10.4672 11.8333 10.5296C11.3217 10.6653 10.8021 10.7787 10.2851 10.899C9.77524 11.0177 9.27529 11.1611 8.7764 11.307C8.51554 11.3832 8.25077 11.4502 7.98943 11.5258C7.73631 11.5988 7.48557 11.6777 7.23513 11.7565C6.72554 11.9169 6.20554 12.0545 5.68984 12.2008C5.44044 12.2717 5.19238 12.3456 4.94489 12.4212C4.70132 12.4958 4.46252 12.5799 4.22133 12.6592C3.81047 12.7944 3.39732 12.9248 2.98187 13.05C2.79607 13.106 2.6135 13.1687 2.42703 13.223C2.48747 13.0819 2.54753 12.9407 2.60396 12.7985C2.76083 12.4032 2.94082 12.0152 3.11173 11.6239ZM15.8825 14.4258C15.8636 14.3568 15.8408 14.2881 15.8217 14.2186C15.7982 14.1321 15.7713 14.0463 15.7485 13.9596C15.7002 13.7767 15.6501 13.5928 15.59 13.4123C15.5315 13.2371 15.4685 13.0633 15.4148 12.887C15.3586 12.703 15.3173 12.5169 15.2679 12.3317C15.2132 12.1253 15.1516 11.9202 15.0949 11.7142C15.0377 11.5072 14.9799 11.2996 14.9124 11.0945C14.8441 10.8869 14.7809 10.6787 14.7226 10.4692C14.6596 10.242 14.5893 10.0167 14.5194 9.79094C14.3908 9.37578 14.276 8.95843 14.1538 8.54213C14.029 8.11685 13.9162 7.6889 13.7799 7.26601C13.7123 7.057 13.6374 6.85 13.5654 6.64204C13.4916 6.42787 13.4211 6.21304 13.3466 5.99887C13.274 5.7912 13.2061 5.58257 13.13 5.37566C13.0563 5.17486 12.9774 4.9754 12.9056 4.77412C12.7603 4.36584 12.6256 3.95431 12.4966 3.54231C12.3788 3.16611 12.239 2.79583 12.103 2.42392C12.0342 2.23573 11.953 2.05002 11.8749 1.86421C11.7491 1.56487 11.6089 1.27279 11.4547 0.982145C11.4142 0.939178 11.3739 0.896211 11.3333 0.853244C11.2366 0.774185 11.1223 0.719569 10.9909 0.689396C10.9237 0.674215 10.8547 0.666672 10.7856 0.666672C10.6486 0.666672 10.512 0.696271 10.3927 0.753656C10.2976 0.799296 10.2165 0.861742 10.1531 0.93469C10.106 0.948153 10.0597 0.964098 10.0152 0.985391C9.95512 1.01232 9.90079 1.0465 9.852 1.08784C9.79443 1.13167 9.7422 1.18409 9.70926 1.24262C9.66362 1.3233 9.63287 1.38011 9.61053 1.45822C9.5922 1.52276 9.58379 1.58846 9.56212 1.65291C9.53863 1.72223 9.50311 1.78935 9.47227 1.85657C9.44601 1.91348 9.421 1.97038 9.39388 2.02691C9.31998 2.16755 9.24416 2.30763 9.17093 2.44856C9.18143 2.42822 9.19194 2.40788 9.20234 2.38755C9.06895 2.63981 8.92573 2.88787 8.79502 3.14109C8.81383 3.10443 8.83264 3.06786 8.85154 3.03119C8.75787 3.21318 8.65666 3.3923 8.56204 3.57382C8.57445 3.54956 8.58696 3.52531 8.59947 3.50096C8.50847 3.67541 8.41528 3.84919 8.32496 4.02392C8.33775 3.99881 8.35083 3.9736 8.36372 3.94849C8.30032 4.06488 8.23263 4.17946 8.16531 4.29432C8.09179 4.41902 8.02801 4.54716 7.96346 4.6752C7.8104 4.96537 7.64427 5.25096 7.48557 5.53912C7.30464 5.86758 7.13401 6.19948 6.96424 6.53185C6.81309 6.8224 6.65851 7.11181 6.51681 7.40551C6.42124 7.60326 6.32843 7.80176 6.23275 7.99941C6.22903 7.99645 6.2254 7.99349 6.22177 7.99053C6.1324 7.91691 6.04561 7.8411 5.96617 7.76032C5.86534 7.65348 5.76289 7.54816 5.65509 7.44571C5.60868 7.40169 5.55569 7.36474 5.50222 7.32655C5.44464 7.28511 5.39012 7.24004 5.33379 7.19717C5.20985 7.10255 5.09719 6.99771 4.97191 6.90452C4.90269 6.85315 4.8285 6.80722 4.75278 6.76234C4.56382 6.65025 4.29972 6.63898 4.08221 6.68109C3.93717 6.70907 3.82985 6.77734 3.72072 6.85582C3.60528 6.9388 3.55057 7.0591 3.49671 7.17168C3.48726 7.19173 3.47829 7.21197 3.46893 7.23221C3.42568 7.31528 3.38347 7.39873 3.3449 7.48343C3.30432 7.57308 3.26918 7.66427 3.22984 7.75421C3.15699 7.9214 3.07392 8.08573 2.994 8.25091C2.91628 8.41056 2.85154 8.57469 2.78623 8.73787C2.74241 8.84729 2.68999 8.95528 2.63575 9.06222C2.5207 9.28154 2.40554 9.50297 2.30357 9.72668C2.21869 9.91268 2.13839 10.0998 2.05092 10.2849C1.86368 10.6812 1.70327 11.0859 1.52654 11.4857C1.43841 11.6851 1.34369 11.8831 1.25966 12.0839C1.18251 12.2684 1.11052 12.4543 1.03461 12.6392C0.896163 12.977 0.743679 13.3113 0.592721 13.6455C0.512039 13.824 0.437181 14.0047 0.361655 14.1845C0.321361 14.2804 0.280686 14.3753 0.250513 14.4739C0.224542 14.5586 0.208979 14.6456 0.197139 14.7332C0.159805 14.7656 0.1261 14.801 0.0978376 14.8405C0.000732282 14.9766 -0.0254298 15.1422 0.0253667 15.2941C0.0746354 15.4413 0.194561 15.5689 0.35478 15.6461C0.411974 15.6659 0.468977 15.6856 0.52617 15.7054C0.653352 15.7335 0.780248 15.7335 0.90743 15.7054C0.937889 15.7017 0.968539 15.698 0.998998 15.6945C1.15186 15.6812 1.30483 15.6723 1.45874 15.6685C1.61553 15.6648 1.76973 15.6475 1.92431 15.6293C2.03011 15.6208 2.13609 15.6153 2.2416 15.6047C2.35608 15.5933 2.47095 15.5812 2.58591 15.5736C2.6812 15.5794 2.7764 15.5857 2.87207 15.5887C3.12529 15.5962 3.37898 15.5956 3.63211 15.5963C4.14933 15.5982 4.66656 15.6005 5.1836 15.597C5.43892 15.5953 5.69376 15.5815 5.94908 15.5791C6.2085 15.5765 6.46783 15.5758 6.72726 15.5757C6.97083 15.5753 7.21364 15.5604 7.45722 15.5576C7.55948 15.5563 7.66164 15.5546 7.764 15.5528C7.91868 15.5539 8.07336 15.5551 8.22795 15.559C8.75319 15.5724 9.27844 15.5921 9.80388 15.5957C10.3312 15.5993 10.8587 15.5978 11.386 15.5978C11.6531 15.5978 11.917 15.5921 12.1832 15.5746C12.3075 15.5665 12.4313 15.5543 12.5555 15.5468C12.6836 15.539 12.8126 15.537 12.9407 15.535C13.4418 15.5272 13.9417 15.4903 14.4431 15.4872C14.5471 15.4866 14.6512 15.4864 14.7553 15.4863C14.8056 15.4863 14.8558 15.4863 14.9063 15.4861C14.926 15.4861 14.9462 15.487 14.9659 15.4853C15.0418 15.4789 15.1379 15.474 15.1984 15.4604C15.2381 15.4514 15.2713 15.4407 15.3021 15.4291C15.373 15.4166 15.4417 15.3879 15.5044 15.3508C15.6053 15.3189 15.6954 15.272 15.7737 15.208C15.9179 15.0896 16 14.9273 16 14.7597C16 14.6431 15.9571 14.5264 15.8825 14.4258Z" fill="white"/>
<mask id="mask0_56_182" style="mask-type:luminance" maskUnits="userSpaceOnUse" x="0" y="0" width="16" height="16">
<path fill-rule="evenodd" clip-rule="evenodd" d="M3.11173 11.6239C3.19728 11.4281 3.27844 11.2312 3.36113 11.0344C3.44334 10.8394 3.54255 10.6499 3.62695 10.4556C3.7506 10.1709 3.88275 9.889 4.02502 9.61038C4.10283 9.45905 4.1796 9.30723 4.2493 9.15331C4.32053 8.99615 4.37973 8.83555 4.4501 8.6781C4.49479 8.57803 4.54329 8.47892 4.5918 8.37981C4.63391 8.41982 4.67611 8.46002 4.71698 8.50088C4.86803 8.66607 5.02796 8.82877 5.21749 8.96512C5.36158 9.06881 5.49916 9.17651 5.63666 9.28613C5.70416 9.33988 5.76833 9.39679 5.83641 9.44988C5.845 9.45666 5.85407 9.46258 5.86333 9.46869C6.05162 9.59138 5.99567 9.56331 6.21891 9.63932C6.29148 9.66386 6.37302 9.66061 6.45093 9.66758C6.56847 9.6778 6.75619 9.62566 6.85558 9.57811C7.03891 9.49027 7.16552 9.35211 7.26348 9.20124C7.40766 8.97963 7.5272 8.74589 7.6436 8.51396C7.81279 8.17682 7.96843 7.83518 8.13686 7.49765C8.27617 7.23021 8.41318 6.96209 8.55049 6.69408C8.83789 6.14582 9.15622 5.60902 9.43742 5.05866C9.4885 4.96671 9.54293 4.87629 9.59573 4.78501C9.66295 4.66842 9.7252 4.55022 9.78641 4.43153C9.77848 4.447 9.77056 4.46256 9.76254 4.47803C9.86843 4.27971 9.97193 4.08054 10.0742 3.88089C10.0482 3.93159 10.0222 3.98238 9.99599 4.03308C10.083 3.87621 10.1682 3.71962 10.2503 3.56112L10.2088 3.64151C10.2422 3.57697 10.2775 3.51299 10.3133 3.44931C10.3325 3.50392 10.3532 3.55825 10.3778 3.61134C10.4418 3.74836 10.5169 3.88136 10.5875 4.0159C10.6286 4.09849 10.6698 4.18089 10.7117 4.2631C10.7048 4.24992 10.6982 4.23675 10.6914 4.22367C10.8612 4.55948 11.0007 4.9056 11.1334 5.25258C11.2763 5.62697 11.3967 6.00718 11.5115 6.38786C11.6237 6.75967 11.7391 7.13205 11.8304 7.50787C11.8781 7.70466 11.9267 7.90183 11.9695 8.09957C12.0127 8.30085 12.0491 8.50365 12.1044 8.70302C12.1565 8.89016 12.2143 9.07616 12.2652 9.2634C12.2923 9.36404 12.3169 9.46516 12.3476 9.56513C12.3777 9.6629 12.4094 9.76001 12.4359 9.85854C12.4802 10.022 12.519 10.1863 12.5593 10.3505C12.5534 10.3517 12.5476 10.3532 12.5416 10.3545C12.3024 10.4047 12.068 10.4672 11.8333 10.5296C11.3217 10.6653 10.8021 10.7787 10.2851 10.899C9.77524 11.0177 9.27529 11.1611 8.7764 11.307C8.51554 11.3832 8.25077 11.4502 7.98943 11.5258C7.73631 11.5988 7.48557 11.6777 7.23513 11.7565C6.72554 11.9169 6.20554 12.0545 5.68984 12.2008C5.44044 12.2717 5.19238 12.3456 4.94489 12.4212C4.70132 12.4958 4.46252 12.5799 4.22133 12.6592C3.81047 12.7944 3.39732 12.9248 2.98187 13.05C2.79607 13.106 2.6135 13.1687 2.42703 13.223C2.48747 13.0819 2.54753 12.9407 2.60396 12.7985C2.76083 12.4032 2.94082 12.0152 3.11173 11.6239ZM15.8825 14.4258C15.8636 14.3568 15.8408 14.2881 15.8217 14.2186C15.7982 14.1321 15.7713 14.0463 15.7485 13.9596C15.7002 13.7767 15.6501 13.5928 15.59 13.4123C15.5315 13.2371 15.4685 13.0633 15.4148 12.887C15.3586 12.703 15.3173 12.5169 15.2679 12.3317C15.2132 12.1253 15.1516 11.9202 15.0949 11.7142C15.0377 11.5072 14.9799 11.2996 14.9124 11.0945C14.8441 10.8869 14.7809 10.6787 14.7226 10.4692C14.6596 10.242 14.5893 10.0167 14.5194 9.79094C14.3908 9.37578 14.276 8.95843 14.1538 8.54213C14.029 8.11685 13.9162 7.6889 13.7799 7.26601C13.7123 7.057 13.6374 6.85 13.5654 6.64204C13.4916 6.42787 13.4211 6.21304 13.3466 5.99887C13.274 5.7912 13.2061 5.58257 13.13 5.37566C13.0563 5.17486 12.9774 4.9754 12.9056 4.77412C12.7603 4.36584 12.6256 3.95431 12.4966 3.54231C12.3788 3.16611 12.239 2.79583 12.103 2.42392C12.0342 2.23573 11.953 2.05002 11.8749 1.86421C11.7491 1.56487 11.6089 1.27279 11.4547 0.982145C11.4142 0.939178 11.3739 0.896211 11.3333 0.853244C11.2366 0.774185 11.1223 0.719569 10.9909 0.689396C10.9237 0.674215 10.8547 0.666672 10.7856 0.666672C10.6486 0.666672 10.512 0.696271 10.3927 0.753656C10.2976 0.799296 10.2165 0.861742 10.1531 0.93469C10.106 0.948153 10.0597 0.964098 10.0152 0.985391C9.95512 1.01232 9.90079 1.0465 9.852 1.08784C9.79443 1.13167 9.7422 1.18409 9.70926 1.24262C9.66362 1.3233 9.63287 1.38011 9.61053 1.45822C9.5922 1.52276 9.58379 1.58846 9.56212 1.65291C9.53863 1.72223 9.50311 1.78935 9.47227 1.85657C9.44601 1.91348 9.421 1.97038 9.39388 2.02691C9.31998 2.16755 9.24416 2.30763 9.17093 2.44856C9.18143 2.42822 9.19194 2.40788 9.20234 2.38755C9.06895 2.63981 8.92573 2.88787 8.79502 3.14109C8.81383 3.10443 8.83264 3.06786 8.85154 3.03119C8.75787 3.21318 8.65666 3.3923 8.56204 3.57382C8.57445 3.54956 8.58696 3.52531 8.59947 3.50096C8.50847 3.67541 8.41528 3.84919 8.32496 4.02392C8.33775 3.99881 8.35083 3.9736 8.36372 3.94849C8.30032 4.06488 8.23263 4.17946 8.16531 4.29432C8.09179 4.41902 8.02801 4.54716 7.96346 4.6752C7.8104 4.96537 7.64427 5.25096 7.48557 5.53912C7.30464 5.86758 7.13401 6.19948 6.96424 6.53185C6.81309 6.8224 6.65851 7.11181 6.51681 7.40551C6.42124 7.60326 6.32843 7.80176 6.23275 7.99941C6.22903 7.99645 6.2254 7.99349 6.22177 7.99053C6.1324 7.91691 6.04561 7.8411 5.96617 7.76032C5.86534 7.65348 5.76289 7.54816 5.65509 7.44571C5.60868 7.40169 5.55569 7.36474 5.50222 7.32655C5.44464 7.28511 5.39012 7.24004 5.33379 7.19717C5.20985 7.10255 5.09719 6.99771 4.97191 6.90452C4.90269 6.85315 4.8285 6.80722 4.75278 6.76234C4.56382 6.65025 4.29972 6.63898 4.08221 6.68109C3.93717 6.70907 3.82985 6.77734 3.72072 6.85582C3.60528 6.9388 3.55057 7.0591 3.49671 7.17168C3.48726 7.19173 3.47829 7.21197 3.46893 7.23221C3.42568 7.31528 3.38347 7.39873 3.3449 7.48343C3.30432 7.57308 3.26918 7.66427 3.22984 7.75421C3.15699 7.9214 3.07392 8.08573 2.994 8.25091C2.91628 8.41056 2.85154 8.57469 2.78623 8.73787C2.74241 8.84729 2.68999 8.95528 2.63575 9.06222C2.5207 9.28154 2.40554 9.50297 2.30357 9.72668C2.21869 9.91268 2.13839 10.0998 2.05092 10.2849C1.86368 10.6812 1.70327 11.0859 1.52654 11.4857C1.43841 11.6851 1.34369 11.8831 1.25966 12.0839C1.18251 12.2684 1.11052 12.4543 1.03461 12.6392C0.896163 12.977 0.743679 13.3113 0.592721 13.6455C0.512039 13.824 0.437181 14.0047 0.361655 14.1845C0.321361 14.2804 0.280686 14.3753 0.250513 14.4739C0.224542 14.5586 0.208979 14.6456 0.197139 14.7332C0.159805 14.7656 0.1261 14.801 0.0978376 14.8405C0.000732282 14.9766 -0.0254298 15.1422 0.0253667 15.2941C0.0746354 15.4413 0.194561 15.5689 0.35478 15.6461C0.411974 15.6659 0.468977 15.6856 0.52617 15.7054C0.653352 15.7335 0.780248 15.7335 0.90743 15.7054C0.937889 15.7017 0.968539 15.698 0.998998 15.6945C1.15186 15.6812 1.30483 15.6723 1.45874 15.6685C1.61553 15.6648 1.76973 15.6475 1.92431 15.6293C2.03011 15.6208 2.13609 15.6153 2.2416 15.6047C2.35608 15.5933 2.47095 15.5812 2.58591 15.5736C2.6812 15.5794 2.7764 15.5857 2.87207 15.5887C3.12529 15.5962 3.37898 15.5956 3.63211 15.5963C4.14933 15.5982 4.66656 15.6005 5.1836 15.597C5.43892 15.5953 5.69376 15.5815 5.94908 15.5791C6.2085 15.5765 6.46783 15.5758 6.72726 15.5757C6.97083 15.5753 7.21364 15.5604 7.45722 15.5576C7.55948 15.5563 7.66164 15.5546 7.764 15.5528C7.91868 15.5539 8.07336 15.5551 8.22795 15.559C8.75319 15.5724 9.27844 15.5921 9.80388 15.5957C10.3312 15.5993 10.8587 15.5978 11.386 15.5978C11.6531 15.5978 11.917 15.5921 12.1832 15.5746C12.3075 15.5665 12.4313 15.5543 12.5555 15.5468C12.6836 15.539 12.8126 15.537 12.9407 15.535C13.4418 15.5272 13.9417 15.4903 14.4431 15.4872C14.5471 15.4866 14.6512 15.4864 14.7553 15.4863C14.8056 15.4863 14.8558 15.4863 14.9063 15.4861C14.926 15.4861 14.9462 15.487 14.9659 15.4853C15.0418 15.4789 15.1379 15.474 15.1984 15.4604C15.2381 15.4514 15.2713 15.4407 15.3021 15.4291C15.373 15.4166 15.4417 15.3879 15.5044 15.3508C15.6053 15.3189 15.6954 15.272 15.7737 15.208C15.9179 15.0896 16 14.9273 16 14.7597C16 14.6431 15.9571 14.5264 15.8825 14.4258Z" fill="white"/>
</mask>
<g mask="url(#mask0_56_182)">
<rect width="16" height="16" fill="#98BE42"/>
</g>
</svg>
