<svg width="16" height="16" viewBox="0 0 16 16" fill="none" xmlns="http://www.w3.org/2000/svg">
<path fill-rule="evenodd" clip-rule="evenodd" d="M15.813 5.5914V5.59404C15.8056 5.60138 15.7977 5.60715 15.7902 5.61399C15.7853 5.6186 15.7811 5.62371 15.7761 5.628C15.7714 5.63212 15.7663 5.63533 15.7614 5.63921C15.7539 5.64531 15.7462 5.65108 15.7385 5.65668C15.7256 5.666 15.7126 5.67465 15.6993 5.68273C15.6915 5.68751 15.6838 5.69237 15.6758 5.69657C15.6614 5.7044 15.6467 5.71116 15.6319 5.71743C15.6248 5.72039 15.618 5.72386 15.6109 5.72657C15.5888 5.73473 15.5665 5.74158 15.5439 5.74627C15.515 5.7527 15.4864 5.75814 15.4577 5.76267H15.4575V5.76449C15.402 5.77289 15.347 5.77677 15.29 5.77174C15.242 5.76787 15.1939 5.76523 15.1456 5.76366C15.0594 5.76144 14.9728 5.76465 14.8866 5.76655C14.6935 5.77141 14.5011 5.78138 14.3086 5.7949C14.0993 5.80965 13.8928 5.85185 13.6829 5.86216C13.5403 5.86924 13.4034 5.85507 13.2624 5.82968C13.1838 5.81518 13.0172 5.72048 12.9661 5.65611C12.8936 5.56536 12.8332 5.49382 12.8035 5.3767C12.7739 5.26008 12.7664 5.11139 12.8041 4.99485C12.8247 4.93072 12.8519 4.86891 12.8797 4.80742C12.9236 4.70959 12.9697 4.61266 13.0134 4.51417C13.0836 4.3551 13.1482 4.19314 13.2193 4.0344C13.3875 3.65972 13.5949 3.30424 13.7668 2.93079C13.8545 2.74081 13.9465 2.55281 14.0378 2.36415C13.9699 2.38475 13.9018 2.40536 13.8339 2.42498C13.6511 2.47814 13.4677 2.52289 13.287 2.58405C13.1304 2.63713 12.9773 2.69861 12.8244 2.76207C12.6478 2.84606 12.4804 2.94464 12.3147 3.05088C12.0982 3.18901 11.8018 3.10008 11.6758 2.87796C11.5449 2.64652 11.6275 2.35673 11.8434 2.21826C12.0689 2.07403 12.2973 1.94652 12.5443 1.84614C12.6416 1.80649 12.739 1.76627 12.8378 1.73083C13.0306 1.66259 13.2243 1.60209 13.4224 1.55214C13.6033 1.50673 13.7793 1.44434 13.9596 1.39727C14.1574 1.34609 14.3545 1.30332 14.5579 1.28238C14.6059 1.27752 14.6539 1.27175 14.702 1.27175C14.7494 1.27175 14.7968 1.27719 14.8436 1.29392C15.0043 1.35161 15.13 1.44978 15.1811 1.62657C15.2145 1.74245 15.2095 1.88471 15.1708 1.99969C15.0885 2.24373 14.9759 2.48193 14.8695 2.71633C14.7126 3.06242 14.5644 3.4127 14.4169 3.76299C14.2986 4.05377 14.1801 4.34644 14.1018 4.65099C14.3629 4.61431 14.6246 4.58077 14.8866 4.54829C14.884 4.5487 14.8814 4.54912 14.8788 4.54945C14.9567 4.5389 15.0348 4.52859 15.1125 4.51829C15.1833 4.50708 15.2557 4.49389 15.3255 4.48837C15.371 4.48499 15.4159 4.49043 15.4606 4.49802V4.49834L15.5068 4.50832L15.5446 4.51541C15.6322 4.53057 15.7258 4.58563 15.8081 4.66961V4.66698L15.8071 4.12671C15.8079 4.30721 15.8084 4.48771 15.8092 4.66821C15.8519 4.71173 15.8884 4.76003 15.9154 4.80775C15.9716 4.90756 15.9997 5.01512 16 5.13067C16 5.29642 15.9291 5.46909 15.813 5.5914ZM9.83792 4.99278C10.1926 4.79869 10.5653 4.64992 10.9381 4.49736C11.0791 4.43966 11.2226 4.38625 11.3689 4.34504C11.4428 4.32411 11.5168 4.30383 11.5917 4.28611C11.6647 4.26897 11.7443 4.25248 11.8223 4.25248C11.8736 4.25248 11.9242 4.25957 11.9719 4.27836C12.0633 4.31446 12.121 4.34603 12.1918 4.41683C12.2268 4.45351 12.2554 4.49381 12.2779 4.53857C12.3584 4.68659 12.3518 4.84212 12.3278 5.00218C12.3047 5.15474 12.2495 5.29543 12.1918 5.43678C12.1185 5.61712 12.0381 5.79317 11.9572 5.96996C11.8265 6.25497 11.6916 6.53776 11.5673 6.82598C11.5623 6.83909 11.5573 6.85203 11.5523 6.86505C11.6175 6.8512 11.6823 6.8362 11.7467 6.81955C12.0193 6.74875 12.2888 6.65892 12.5639 6.59998C12.6915 6.57262 12.8191 6.54171 12.9473 6.51756C13.0946 6.48987 13.2484 6.45995 13.3962 6.50602C13.6611 6.58878 13.8894 6.83183 13.8725 7.13671C13.8722 7.25391 13.8435 7.36336 13.7864 7.46449L13.6882 7.59579C13.6511 7.64442 13.6046 7.68274 13.5487 7.71175C13.4895 7.74423 13.4277 7.77324 13.3631 7.79286C13.263 7.8231 13.1548 7.8283 13.0509 7.83538C12.9581 7.84181 12.8656 7.84767 12.7731 7.85566C12.604 7.8883 12.4375 7.92918 12.2695 7.96635C12.0514 8.01498 11.8327 8.05429 11.6128 8.09196C11.5152 8.10869 11.4166 8.1232 11.3184 8.13671C11.2004 8.15312 11.0822 8.17694 10.9633 8.18015C10.8748 8.1827 10.7936 8.17595 10.7051 8.15765C10.6184 8.13927 10.5413 8.10259 10.4611 8.06493C10.3813 8.02726 10.2749 7.90585 10.2322 7.83019C10.1854 7.74777 10.1408 7.60551 10.1477 7.50892C10.153 7.43647 10.1554 7.36015 10.1823 7.2919C10.2153 7.20849 10.2481 7.13028 10.288 7.05173C10.4618 6.7101 10.6196 6.36014 10.7931 6.01859C10.8944 5.81897 10.999 5.62223 11.1065 5.42615C11.108 5.42343 11.1096 5.42079 11.111 5.41799C10.9593 5.47882 10.8086 5.54154 10.658 5.60484C10.5346 5.66534 10.411 5.72509 10.2899 5.79095C10.0737 5.90815 9.80454 5.84955 9.67725 5.62511C9.55778 5.41453 9.62238 5.11098 9.83792 4.99278ZM8.28334 8.34713C8.32423 8.24675 8.36512 8.14636 8.40616 8.04597C8.14072 8.16589 7.87615 8.28804 7.60711 8.39931C7.47391 8.45436 7.29016 8.41225 7.17165 8.3407C7.04564 8.26447 6.95109 8.13787 6.91212 7.9924C6.87219 7.84173 6.89279 7.6778 6.96922 7.54296C7.01945 7.45534 7.08685 7.38578 7.17165 7.33402C7.21685 7.31432 7.26181 7.29471 7.30669 7.27509C7.38391 7.24311 7.4609 7.21023 7.53772 7.17726C7.90905 7.0125 8.28478 6.85433 8.66682 6.71677C8.74324 6.68908 8.82054 6.66271 8.89856 6.63922C8.96061 6.62051 9.03456 6.61152 9.09509 6.60666C9.10771 6.60567 9.12016 6.60518 9.13262 6.60518C9.27509 6.60518 9.40022 6.67029 9.50843 6.7654C9.72708 6.95761 9.73866 7.28605 9.68435 7.55359C9.66782 7.63535 9.65065 7.71711 9.62478 7.79665C9.49964 8.18007 9.36149 8.5606 9.21144 8.93446C9.17598 9.02232 9.14125 9.11035 9.10755 9.19878C9.25888 9.15568 9.41076 9.1148 9.56265 9.07449C9.73299 9.02974 9.90548 8.99298 10.0765 8.95276C10.3263 8.89383 10.5859 8.80242 10.8416 8.87166C11.0419 8.92605 11.2035 9.09634 11.2581 9.30148C11.313 9.50786 11.2584 9.75125 11.1046 9.89993C11.0157 9.98623 10.9019 10.0661 10.7802 10.0967C10.7462 10.1054 10.7128 10.1127 10.6785 10.1193C10.614 10.1318 10.549 10.1427 10.4844 10.154C10.3569 10.1765 10.2303 10.2039 10.1039 10.2319C9.83193 10.2921 9.56297 10.3636 9.29473 10.4395C9.17495 10.4737 9.05452 10.5108 8.93226 10.5358C8.71793 10.5793 8.4746 10.6308 8.25723 10.569C8.13713 10.5349 7.97989 10.4769 7.8966 10.372C7.8589 10.325 7.82265 10.277 7.78775 10.2281C7.76244 10.1749 7.74064 10.1205 7.72227 10.0644C7.68138 9.94345 7.69631 9.77573 7.73345 9.65721C7.7578 9.57965 7.79398 9.50135 7.82425 9.42832C7.86928 9.31969 7.91944 9.21346 7.96567 9.10524C8.06917 8.85138 8.17649 8.59942 8.28334 8.34713ZM7.46457 1.5453C7.02943 1.80287 6.6323 2.1187 6.28077 2.4886C5.90241 2.88661 5.57891 3.3508 5.32185 3.84088C5.19488 4.08262 5.0941 4.33762 4.99715 4.59362C4.89262 4.86882 4.8134 5.15408 4.75127 5.44255C4.62653 6.02403 4.59036 6.62578 4.63436 7.2188C4.67485 7.76294 4.77627 8.31054 4.9494 8.82666C5.04762 9.11933 5.16373 9.40937 5.30005 9.68531C5.41792 9.92417 5.55703 10.1518 5.70556 10.3717C6.02307 10.8414 6.39521 11.2635 6.82539 11.6257C7.06057 11.824 7.30829 12.0034 7.56998 12.1621C7.84357 12.3275 8.13401 12.4602 8.42788 12.5819C9.0352 12.833 9.68651 12.9558 10.3385 12.9911C10.6171 13.0059 10.8968 12.9847 11.1732 12.9487C11.2589 12.9375 11.3446 12.9255 11.4302 12.9127C11.3362 12.9713 11.2427 13.031 11.1488 13.09C10.9606 13.2082 10.7632 13.3019 10.5629 13.3956C10.3737 13.4842 10.1836 13.5721 9.99308 13.6579C9.80087 13.7357 9.60593 13.7925 9.40278 13.8286C9.32204 13.8365 9.24139 13.8439 9.16073 13.8537C9.04366 13.868 8.92931 13.8916 8.81375 13.9129C8.69844 13.9244 8.58257 13.9289 8.46701 13.9316C8.28917 13.9358 8.11077 13.9387 7.93261 13.9333C7.62556 13.9238 7.31795 13.909 7.01258 13.8735C6.42723 13.7765 5.83709 13.6805 5.28016 13.4629C5.07701 13.3696 4.87545 13.2694 4.68722 13.1471C4.47664 13.01 4.26582 12.8716 4.06338 12.7216C3.95749 12.63 3.85599 12.5334 3.75354 12.4375C3.62409 12.3161 3.5071 12.1815 3.38172 12.0563C3.26849 11.9432 3.16371 11.8226 3.06357 11.6969C2.99034 11.6051 2.91584 11.5144 2.84325 11.4222C2.73919 11.2673 2.64305 11.1053 2.5548 10.9407C2.47615 10.7941 2.39309 10.6512 2.32426 10.5C2.27738 10.3775 2.2333 10.2538 2.18571 10.1316C2.11775 9.95714 2.05626 9.77944 2.0014 9.60009C1.95085 9.43591 1.91156 9.26843 1.87099 9.10169C1.83897 8.97007 1.81006 8.83877 1.78866 8.70533C1.75759 8.40112 1.75544 8.09608 1.75088 7.79005C1.74641 7.44685 1.75184 7.10827 1.7845 6.76656C1.82627 6.47495 1.87953 6.18368 1.95149 5.89883C1.99141 5.74141 2.03573 5.58564 2.08844 5.43233C2.13029 5.31118 2.1786 5.19265 2.22619 5.07397C2.37337 4.75434 2.56966 4.45977 2.77585 4.17822C2.8268 4.1108 2.87743 4.0433 2.92774 3.97547C3.24477 3.56155 3.58783 3.15844 3.98281 2.82183C4.21208 2.64636 4.4419 2.47031 4.67876 2.30588C4.79607 2.22436 4.91745 2.14681 5.04251 2.07856C5.13075 2.03026 5.2233 1.9893 5.31474 1.94718C5.45513 1.89147 5.59959 1.84655 5.74253 1.79907C5.90313 1.74567 6.0638 1.69481 6.2279 1.65327C6.352 1.62203 6.47618 1.59047 6.60036 1.55956C6.75392 1.52148 6.90845 1.49387 7.06441 1.47063C7.09451 1.46659 7.12462 1.46239 7.15464 1.45827C7.35213 1.43428 7.54954 1.41219 7.74686 1.38936C7.65183 1.43857 7.55784 1.49024 7.46457 1.5453ZM14.2418 11.4386C14.2312 11.4242 14.2209 11.4095 14.2102 11.3951C14.1994 11.3496 14.1842 11.3061 14.16 11.2645C14.0727 11.1138 13.918 11.0436 13.7539 11.0359C13.7488 11.0357 13.7439 11.0355 13.7388 11.0355C13.6875 11.0355 13.6341 11.0485 13.5857 11.0652C13.5663 11.072 13.5473 11.0804 13.5281 11.0883C13.5175 11.0879 13.5069 11.0879 13.4962 11.0885C13.4819 11.087 13.4674 11.0861 13.4529 11.0861C13.4223 11.0861 13.3936 11.0897 13.3666 11.0961C13.3591 11.0969 13.3519 11.0979 13.3447 11.0991C13.2893 11.1033 13.2436 11.1274 13.1896 11.1434C13.1117 11.1663 13.0377 11.2079 12.9654 11.2461C12.9769 11.2411 12.9885 11.236 13 11.2309C12.9754 11.2423 12.9509 11.254 12.9265 11.2659C12.8149 11.3117 12.7016 11.3531 12.5898 11.3988C12.5308 11.4229 12.4703 11.4329 12.4098 11.4525C12.3418 11.4751 12.2725 11.495 12.2039 11.5146C11.8774 11.6089 11.5488 11.7016 11.2134 11.7557C10.7342 11.813 10.2473 11.8146 9.7682 11.7576C9.34297 11.6901 8.92851 11.5745 8.52914 11.4099C8.11668 11.2218 7.72898 10.9851 7.36738 10.7069C7.03318 10.4315 6.72845 10.1192 6.46205 9.77342C6.21145 9.42519 6.00151 9.0487 5.82886 8.65341C5.68017 8.26579 5.56589 7.86613 5.50528 7.45361C5.45313 6.99511 5.45513 6.53512 5.50648 6.07653C5.56988 5.6388 5.67881 5.2131 5.83645 4.80091C6.01293 4.38947 6.23126 3.9997 6.49071 3.63804C6.64667 3.43776 6.81086 3.24588 6.98822 3.06555C7.15888 2.89189 7.34151 2.73191 7.52949 2.57885C7.73121 2.42275 7.93812 2.27818 8.15893 2.15216C8.33333 2.05276 8.5095 1.9574 8.69021 1.87144C8.76416 1.84325 8.84202 1.81704 8.9091 1.77657C9.00677 1.73643 9.10459 1.6977 9.20553 1.66506C9.26039 1.64734 9.31629 1.63094 9.37084 1.61165C9.45477 1.58173 9.54397 1.56879 9.63101 1.55206C9.65465 1.54761 9.67693 1.53986 9.69777 1.52956C9.88296 1.58107 10.1054 1.46733 10.1835 1.28172C10.2001 1.24241 10.2166 1.20738 10.2272 1.16707C10.2378 1.12652 10.2397 1.08375 10.2441 1.04188C10.2493 0.986161 10.2369 0.925335 10.2176 0.872833C10.2007 0.828408 10.1832 0.783984 10.162 0.741125C10.1415 0.699585 10.1002 0.651946 10.0759 0.620709C10.0204 0.548591 9.94461 0.492957 9.87002 0.443669C9.80797 0.40213 9.73498 0.376991 9.6691 0.342869C9.60705 0.310725 9.54564 0.276933 9.48232 0.246602C9.43544 0.224184 9.38856 0.202095 9.34081 0.181572H9.3369L9.33338 0.180171H9.33346C9.31749 0.173248 9.30184 0.166654 9.28579 0.160308C9.24929 0.145884 9.20968 0.136159 9.16912 0.126186L9.14787 0.120746C9.09142 0.106899 9.0328 0.0969265 8.9757 0.0872833L8.9638 0.0853052L8.92859 0.0795358L8.854 0.0663485C8.79978 0.057035 8.74579 0.047639 8.69029 0.0402212C8.55518 0.0209348 8.42733 0.00288472 8.29157 0.000329682L8.27504 0H8.25883C8.15525 0 8.05487 0.00807721 7.96064 0.0164017C7.90131 0.0213469 7.84197 0.0283526 7.77889 0.0364299H7.77857C7.77521 0.0367595 7.77186 0.0372541 7.76851 0.0376662L7.76523 0.0371716C7.76499 0.0371716 7.76475 0.0372541 7.76451 0.0372541C7.68498 0.0256328 7.60304 0.0248086 7.52326 0.0241492H7.51081L7.45091 0.0234898C7.4113 0.0231602 7.3717 0.0231602 7.33209 0.0231602C7.27251 0.0231602 7.21294 0.0238195 7.15361 0.0257976C6.91659 0.0334627 6.71663 0.0437653 6.51132 0.0685738C6.44815 0.0759917 6.38682 0.0841513 6.32685 0.0928879C6.30401 0.0961847 6.28237 0.100141 6.25993 0.103603C6.22351 0.109372 6.18662 0.114977 6.15124 0.121241C6.12641 0.125691 6.10269 0.130636 6.07841 0.135417C6.04671 0.141434 6.01453 0.147285 5.98362 0.153797C5.95807 0.159319 5.93347 0.165418 5.90848 0.171105C5.88085 0.177451 5.85282 0.183468 5.82582 0.190226H5.82622C5.82383 0.190803 5.82127 0.191216 5.81888 0.191875H5.81201C5.80522 0.193606 5.79851 0.195254 5.79173 0.197067C5.55647 0.257234 5.33007 0.34221 5.10703 0.43823C5.12165 0.431718 5.13666 0.42529 5.15159 0.418861C4.63628 0.625571 4.14372 0.875388 3.67424 1.17738C3.44401 1.32549 3.22472 1.49132 3.01047 1.66259C2.78088 1.84614 2.56159 2.04057 2.35285 2.24884C1.95141 2.64974 1.5958 3.09917 1.28165 3.57532C0.9944 4.01058 0.768804 4.47939 0.57012 4.96328C0.344923 5.51121 0.181456 6.07785 0.0872246 6.6651C0.0805965 6.70664 0.0744475 6.74809 0.068618 6.78972C0.068618 6.79408 0.068618 6.79854 0.0685381 6.8029C0.0678993 6.80768 0.0673403 6.81271 0.0667014 6.81757V6.81634C0.063028 6.8437 0.0598337 6.87205 0.0563999 6.89991C0.0532854 6.92555 0.0498516 6.95077 0.0469767 6.97689C0.0433033 7.00928 0.0401889 7.04291 0.0369148 7.07621C0.0345191 7.10077 0.0318039 7.12492 0.0295679 7.15006C0.0261341 7.18921 0.0230995 7.22976 0.0201448 7.27006C0.0186275 7.29059 0.0167908 7.31037 0.0153534 7.3313C0.011121 7.3932 0.00744754 7.45666 0.00425326 7.52186C-0.00261443 7.64804 0.00018056 7.77588 0.00329498 7.90759L0.00425326 7.94105C0.0064094 8.04951 0.0108015 8.21246 0.0223808 8.37376C0.0264535 8.43417 0.0315643 8.49599 0.0374738 8.55854C0.03955 8.58146 0.0424249 8.60495 0.0447407 8.62802C0.0485739 8.66577 0.0522473 8.70336 0.0565596 8.74143V8.74011C0.0571984 8.74539 0.0576776 8.75033 0.0582366 8.75561L0.0581567 8.76937C0.107109 9.17653 0.186726 9.58031 0.29094 9.97543C0.433484 10.5154 0.634085 11.0305 0.873656 11.5321C1.03026 11.8599 1.21401 12.1715 1.41485 12.4729C1.61984 12.7804 1.83881 13.0778 2.0799 13.356C2.3332 13.6487 2.60495 13.9207 2.89444 14.1744C3.23039 14.4687 3.57977 14.7404 3.96061 14.9696C4.29441 15.1706 4.64498 15.3373 5.00066 15.4915C5.39052 15.6605 5.797 15.7778 6.21217 15.8585C6.40064 15.8953 6.59181 15.9191 6.78179 15.9438C6.99269 15.9713 7.20328 15.9899 7.41538 15.998C7.58755 16.0047 7.75908 15.9931 7.93101 15.9841C8.09728 15.9754 8.2629 15.9564 8.42788 15.9335C8.59574 15.9129 8.76264 15.8894 8.92923 15.8595C8.98664 15.8492 9.0431 15.8347 9.09924 15.8202C9.19283 15.7958 9.28858 15.7793 9.38218 15.7558C9.69689 15.677 10.0029 15.5752 10.3064 15.4596C10.5897 15.3521 10.8673 15.2272 11.1359 15.0849C11.3979 14.9465 11.6559 14.7913 11.8886 14.6048C11.8627 14.6254 11.8368 14.646 11.8109 14.667C11.9715 14.5546 12.1294 14.4374 12.2807 14.3119C12.4236 14.1982 12.5639 14.082 12.7009 13.9613C12.7031 13.9593 12.7049 13.9577 12.7071 13.9558C12.7112 13.9522 12.7152 13.9484 12.719 13.9446C12.8188 13.8541 12.9165 13.761 13.0157 13.6693C13.0428 13.6548 13.0681 13.6361 13.0905 13.6132C13.1124 13.5981 13.1323 13.5804 13.1504 13.5598C13.1657 13.5475 13.1797 13.534 13.1931 13.5189C13.1941 13.5179 13.195 13.517 13.196 13.5157C13.2096 13.5048 13.2222 13.4925 13.2334 13.479C13.259 13.4519 13.2839 13.4249 13.3098 13.3985C13.2986 13.4075 13.2873 13.4165 13.2761 13.4252C13.2764 13.4246 13.277 13.4239 13.2774 13.4232C13.3145 13.3914 13.3479 13.3582 13.3837 13.3219C13.4099 13.3009 13.4356 13.2793 13.4601 13.2562C13.5097 13.2169 13.555 13.1751 13.5896 13.1152C13.5915 13.1119 13.5934 13.1091 13.5953 13.1058C13.6099 13.0875 13.6233 13.0688 13.6354 13.0495C13.6414 13.0418 13.647 13.0341 13.6529 13.026C13.6539 13.0247 13.6548 13.0234 13.656 13.0221C13.6782 12.9928 13.7004 12.9632 13.7222 12.9336C13.7247 12.9291 13.7272 12.9246 13.7293 12.9201L13.7343 12.9133C13.7944 12.8624 13.8548 12.8112 13.9061 12.7509C13.9145 12.7411 13.9216 12.7302 13.9298 12.7201C13.9315 12.7177 13.9337 12.7153 13.9353 12.7128C13.989 12.6454 14.0382 12.5742 14.0823 12.4995C14.1273 12.4236 14.1731 12.3476 14.2115 12.2677C14.262 12.1634 14.311 12.0539 14.3284 11.938C14.3443 11.834 14.3469 11.76 14.3291 11.656C14.3164 11.5803 14.2867 11.5001 14.2418 11.4386Z" fill="white"/>
<mask id="mask0_56_172" style="mask-type:luminance" maskUnits="userSpaceOnUse" x="0" y="0" width="16" height="16">
<path fill-rule="evenodd" clip-rule="evenodd" d="M15.813 5.5914V5.59404C15.8056 5.60138 15.7977 5.60715 15.7902 5.61399C15.7853 5.6186 15.7811 5.62371 15.7761 5.628C15.7714 5.63212 15.7663 5.63533 15.7614 5.63921C15.7539 5.64531 15.7462 5.65108 15.7385 5.65668C15.7256 5.666 15.7126 5.67465 15.6993 5.68273C15.6915 5.68751 15.6838 5.69237 15.6758 5.69657C15.6614 5.7044 15.6467 5.71116 15.6319 5.71743C15.6248 5.72039 15.618 5.72386 15.6109 5.72657C15.5888 5.73473 15.5665 5.74158 15.5439 5.74627C15.515 5.7527 15.4864 5.75814 15.4577 5.76267H15.4575V5.76449C15.402 5.77289 15.347 5.77677 15.29 5.77174C15.242 5.76787 15.1939 5.76523 15.1456 5.76366C15.0594 5.76144 14.9728 5.76465 14.8866 5.76655C14.6935 5.77141 14.5011 5.78138 14.3086 5.7949C14.0993 5.80965 13.8928 5.85185 13.6829 5.86216C13.5403 5.86924 13.4034 5.85507 13.2624 5.82968C13.1838 5.81518 13.0172 5.72048 12.9661 5.65611C12.8936 5.56536 12.8332 5.49382 12.8035 5.3767C12.7739 5.26008 12.7664 5.11139 12.8041 4.99485C12.8247 4.93072 12.8519 4.86891 12.8797 4.80742C12.9236 4.70959 12.9697 4.61266 13.0134 4.51417C13.0836 4.3551 13.1482 4.19314 13.2193 4.0344C13.3875 3.65972 13.5949 3.30424 13.7668 2.93079C13.8545 2.74081 13.9465 2.55281 14.0378 2.36415C13.9699 2.38475 13.9018 2.40536 13.8339 2.42498C13.6511 2.47814 13.4677 2.52289 13.287 2.58405C13.1304 2.63713 12.9773 2.69861 12.8244 2.76207C12.6478 2.84606 12.4804 2.94464 12.3147 3.05088C12.0982 3.18901 11.8018 3.10008 11.6758 2.87796C11.5449 2.64652 11.6275 2.35673 11.8434 2.21826C12.0689 2.07403 12.2973 1.94652 12.5443 1.84614C12.6416 1.80649 12.739 1.76627 12.8378 1.73083C13.0306 1.66259 13.2243 1.60209 13.4224 1.55214C13.6033 1.50673 13.7793 1.44434 13.9596 1.39727C14.1574 1.34609 14.3545 1.30332 14.5579 1.28238C14.6059 1.27752 14.6539 1.27175 14.702 1.27175C14.7494 1.27175 14.7968 1.27719 14.8436 1.29392C15.0043 1.35161 15.13 1.44978 15.1811 1.62657C15.2145 1.74245 15.2095 1.88471 15.1708 1.99969C15.0885 2.24373 14.9759 2.48193 14.8695 2.71633C14.7126 3.06242 14.5644 3.4127 14.4169 3.76299C14.2986 4.05377 14.1801 4.34644 14.1018 4.65099C14.3629 4.61431 14.6246 4.58077 14.8866 4.54829C14.884 4.5487 14.8814 4.54912 14.8788 4.54945C14.9567 4.5389 15.0348 4.52859 15.1125 4.51829C15.1833 4.50708 15.2557 4.49389 15.3255 4.48837C15.371 4.48499 15.4159 4.49043 15.4606 4.49802V4.49834L15.5068 4.50832L15.5446 4.51541C15.6322 4.53057 15.7258 4.58563 15.8081 4.66961V4.66698L15.8071 4.12671C15.8079 4.30721 15.8084 4.48771 15.8092 4.66821C15.8519 4.71173 15.8884 4.76003 15.9154 4.80775C15.9716 4.90756 15.9997 5.01512 16 5.13067C16 5.29642 15.9291 5.46909 15.813 5.5914ZM9.83792 4.99278C10.1926 4.79869 10.5653 4.64992 10.9381 4.49736C11.0791 4.43966 11.2226 4.38625 11.3689 4.34504C11.4428 4.32411 11.5168 4.30383 11.5917 4.28611C11.6647 4.26897 11.7443 4.25248 11.8223 4.25248C11.8736 4.25248 11.9242 4.25957 11.9719 4.27836C12.0633 4.31446 12.121 4.34603 12.1918 4.41683C12.2268 4.45351 12.2554 4.49381 12.2779 4.53857C12.3584 4.68659 12.3518 4.84212 12.3278 5.00218C12.3047 5.15474 12.2495 5.29543 12.1918 5.43678C12.1185 5.61712 12.0381 5.79317 11.9572 5.96996C11.8265 6.25497 11.6916 6.53776 11.5673 6.82598C11.5623 6.83909 11.5573 6.85203 11.5523 6.86505C11.6175 6.8512 11.6823 6.8362 11.7467 6.81955C12.0193 6.74875 12.2888 6.65892 12.5639 6.59998C12.6915 6.57262 12.8191 6.54171 12.9473 6.51756C13.0946 6.48987 13.2484 6.45995 13.3962 6.50602C13.6611 6.58878 13.8894 6.83183 13.8725 7.13671C13.8722 7.25391 13.8435 7.36336 13.7864 7.46449L13.6882 7.59579C13.6511 7.64442 13.6046 7.68274 13.5487 7.71175C13.4895 7.74423 13.4277 7.77324 13.3631 7.79286C13.263 7.8231 13.1548 7.8283 13.0509 7.83538C12.9581 7.84181 12.8656 7.84767 12.7731 7.85566C12.604 7.8883 12.4375 7.92918 12.2695 7.96635C12.0514 8.01498 11.8327 8.05429 11.6128 8.09196C11.5152 8.10869 11.4166 8.1232 11.3184 8.13671C11.2004 8.15312 11.0822 8.17694 10.9633 8.18015C10.8748 8.1827 10.7936 8.17595 10.7051 8.15765C10.6184 8.13927 10.5413 8.10259 10.4611 8.06493C10.3813 8.02726 10.2749 7.90585 10.2322 7.83019C10.1854 7.74777 10.1408 7.60551 10.1477 7.50892C10.153 7.43647 10.1554 7.36015 10.1823 7.2919C10.2153 7.20849 10.2481 7.13028 10.288 7.05173C10.4618 6.7101 10.6196 6.36014 10.7931 6.01859C10.8944 5.81897 10.999 5.62223 11.1065 5.42615C11.108 5.42343 11.1096 5.42079 11.111 5.41799C10.9593 5.47882 10.8086 5.54154 10.658 5.60484C10.5346 5.66534 10.411 5.72509 10.2899 5.79095C10.0737 5.90815 9.80454 5.84955 9.67725 5.62511C9.55778 5.41453 9.62238 5.11098 9.83792 4.99278ZM8.28334 8.34713C8.32423 8.24675 8.36512 8.14636 8.40616 8.04597C8.14072 8.16589 7.87615 8.28804 7.60711 8.39931C7.47391 8.45436 7.29016 8.41225 7.17165 8.3407C7.04564 8.26447 6.95109 8.13787 6.91212 7.9924C6.87219 7.84173 6.89279 7.6778 6.96922 7.54296C7.01945 7.45534 7.08685 7.38578 7.17165 7.33402C7.21685 7.31432 7.26181 7.29471 7.30669 7.27509C7.38391 7.24311 7.4609 7.21023 7.53772 7.17726C7.90905 7.0125 8.28478 6.85433 8.66682 6.71677C8.74324 6.68908 8.82054 6.66271 8.89856 6.63922C8.96061 6.62051 9.03456 6.61152 9.09509 6.60666C9.10771 6.60567 9.12016 6.60518 9.13262 6.60518C9.27509 6.60518 9.40022 6.67029 9.50843 6.7654C9.72708 6.95761 9.73866 7.28605 9.68435 7.55359C9.66782 7.63535 9.65065 7.71711 9.62478 7.79665C9.49964 8.18007 9.36149 8.5606 9.21144 8.93446C9.17598 9.02232 9.14125 9.11035 9.10755 9.19878C9.25888 9.15568 9.41076 9.1148 9.56265 9.07449C9.73299 9.02974 9.90548 8.99298 10.0765 8.95276C10.3263 8.89383 10.5859 8.80242 10.8416 8.87166C11.0419 8.92605 11.2035 9.09634 11.2581 9.30148C11.313 9.50786 11.2584 9.75125 11.1046 9.89993C11.0157 9.98623 10.9019 10.0661 10.7802 10.0967C10.7462 10.1054 10.7128 10.1127 10.6785 10.1193C10.614 10.1318 10.549 10.1427 10.4844 10.154C10.3569 10.1765 10.2303 10.2039 10.1039 10.2319C9.83193 10.2921 9.56297 10.3636 9.29473 10.4395C9.17495 10.4737 9.05452 10.5108 8.93226 10.5358C8.71793 10.5793 8.4746 10.6308 8.25723 10.569C8.13713 10.5349 7.97989 10.4769 7.8966 10.372C7.8589 10.325 7.82265 10.277 7.78775 10.2281C7.76244 10.1749 7.74064 10.1205 7.72227 10.0644C7.68138 9.94345 7.69631 9.77573 7.73345 9.65721C7.7578 9.57965 7.79398 9.50135 7.82425 9.42832C7.86928 9.31969 7.91944 9.21346 7.96567 9.10524C8.06917 8.85138 8.17649 8.59942 8.28334 8.34713ZM7.46457 1.5453C7.02943 1.80287 6.6323 2.1187 6.28077 2.4886C5.90241 2.88661 5.57891 3.3508 5.32185 3.84088C5.19488 4.08262 5.0941 4.33762 4.99715 4.59362C4.89262 4.86882 4.8134 5.15408 4.75127 5.44255C4.62653 6.02403 4.59036 6.62578 4.63436 7.2188C4.67485 7.76294 4.77627 8.31054 4.9494 8.82666C5.04762 9.11933 5.16373 9.40937 5.30005 9.68531C5.41792 9.92417 5.55703 10.1518 5.70556 10.3717C6.02307 10.8414 6.39521 11.2635 6.82539 11.6257C7.06057 11.824 7.30829 12.0034 7.56998 12.1621C7.84357 12.3275 8.13401 12.4602 8.42788 12.5819C9.0352 12.833 9.68651 12.9558 10.3385 12.9911C10.6171 13.0059 10.8968 12.9847 11.1732 12.9487C11.2589 12.9375 11.3446 12.9255 11.4302 12.9127C11.3362 12.9713 11.2427 13.031 11.1488 13.09C10.9606 13.2082 10.7632 13.3019 10.5629 13.3956C10.3737 13.4842 10.1836 13.5721 9.99308 13.6579C9.80087 13.7357 9.60593 13.7925 9.40278 13.8286C9.32204 13.8365 9.24139 13.8439 9.16073 13.8537C9.04366 13.868 8.92931 13.8916 8.81375 13.9129C8.69844 13.9244 8.58257 13.9289 8.46701 13.9316C8.28917 13.9358 8.11077 13.9387 7.93261 13.9333C7.62556 13.9238 7.31795 13.909 7.01258 13.8735C6.42723 13.7765 5.83709 13.6805 5.28016 13.4629C5.07701 13.3696 4.87545 13.2694 4.68722 13.1471C4.47664 13.01 4.26582 12.8716 4.06338 12.7216C3.95749 12.63 3.85599 12.5334 3.75354 12.4375C3.62409 12.3161 3.5071 12.1815 3.38172 12.0563C3.26849 11.9432 3.16371 11.8226 3.06357 11.6969C2.99034 11.6051 2.91584 11.5144 2.84325 11.4222C2.73919 11.2673 2.64305 11.1053 2.5548 10.9407C2.47615 10.7941 2.39309 10.6512 2.32426 10.5C2.27738 10.3775 2.2333 10.2538 2.18571 10.1316C2.11775 9.95714 2.05626 9.77944 2.0014 9.60009C1.95085 9.43591 1.91156 9.26843 1.87099 9.10169C1.83897 8.97007 1.81006 8.83877 1.78866 8.70533C1.75759 8.40112 1.75544 8.09608 1.75088 7.79005C1.74641 7.44685 1.75184 7.10827 1.7845 6.76656C1.82627 6.47495 1.87953 6.18368 1.95149 5.89883C1.99141 5.74141 2.03573 5.58564 2.08844 5.43233C2.13029 5.31118 2.1786 5.19265 2.22619 5.07397C2.37337 4.75434 2.56966 4.45977 2.77585 4.17822C2.8268 4.1108 2.87743 4.0433 2.92774 3.97547C3.24477 3.56155 3.58783 3.15844 3.98281 2.82183C4.21208 2.64636 4.4419 2.47031 4.67876 2.30588C4.79607 2.22436 4.91745 2.14681 5.04251 2.07856C5.13075 2.03026 5.2233 1.9893 5.31474 1.94718C5.45513 1.89147 5.59959 1.84655 5.74253 1.79907C5.90313 1.74567 6.0638 1.69481 6.2279 1.65327C6.352 1.62203 6.47618 1.59047 6.60036 1.55956C6.75392 1.52148 6.90845 1.49387 7.06441 1.47063C7.09451 1.46659 7.12462 1.46239 7.15464 1.45827C7.35213 1.43428 7.54954 1.41219 7.74686 1.38936C7.65183 1.43857 7.55784 1.49024 7.46457 1.5453ZM14.2418 11.4386C14.2312 11.4242 14.2209 11.4095 14.2102 11.3951C14.1994 11.3496 14.1842 11.3061 14.16 11.2645C14.0727 11.1138 13.918 11.0436 13.7539 11.0359C13.7488 11.0357 13.7439 11.0355 13.7388 11.0355C13.6875 11.0355 13.6341 11.0485 13.5857 11.0652C13.5663 11.072 13.5473 11.0804 13.5281 11.0883C13.5175 11.0879 13.5069 11.0879 13.4962 11.0885C13.4819 11.087 13.4674 11.0861 13.4529 11.0861C13.4223 11.0861 13.3936 11.0897 13.3666 11.0961C13.3591 11.0969 13.3519 11.0979 13.3447 11.0991C13.2893 11.1033 13.2436 11.1274 13.1896 11.1434C13.1117 11.1663 13.0377 11.2079 12.9654 11.2461C12.9769 11.2411 12.9885 11.236 13 11.2309C12.9754 11.2423 12.9509 11.254 12.9265 11.2659C12.8149 11.3117 12.7016 11.3531 12.5898 11.3988C12.5308 11.4229 12.4703 11.4329 12.4098 11.4525C12.3418 11.4751 12.2725 11.495 12.2039 11.5146C11.8774 11.6089 11.5488 11.7016 11.2134 11.7557C10.7342 11.813 10.2473 11.8146 9.7682 11.7576C9.34297 11.6901 8.92851 11.5745 8.52914 11.4099C8.11668 11.2218 7.72898 10.9851 7.36738 10.7069C7.03318 10.4315 6.72845 10.1192 6.46205 9.77342C6.21145 9.42519 6.00151 9.0487 5.82886 8.65341C5.68017 8.26579 5.56589 7.86613 5.50528 7.45361C5.45313 6.99511 5.45513 6.53512 5.50648 6.07653C5.56988 5.6388 5.67881 5.2131 5.83645 4.80091C6.01293 4.38947 6.23126 3.9997 6.49071 3.63804C6.64667 3.43776 6.81086 3.24588 6.98822 3.06555C7.15888 2.89189 7.34151 2.73191 7.52949 2.57885C7.73121 2.42275 7.93812 2.27818 8.15893 2.15216C8.33333 2.05276 8.5095 1.9574 8.69021 1.87144C8.76416 1.84325 8.84202 1.81704 8.9091 1.77657C9.00677 1.73643 9.10459 1.6977 9.20553 1.66506C9.26039 1.64734 9.31629 1.63094 9.37084 1.61165C9.45477 1.58173 9.54397 1.56879 9.63101 1.55206C9.65465 1.54761 9.67693 1.53986 9.69777 1.52956C9.88296 1.58107 10.1054 1.46733 10.1835 1.28172C10.2001 1.24241 10.2166 1.20738 10.2272 1.16707C10.2378 1.12652 10.2397 1.08375 10.2441 1.04188C10.2493 0.986161 10.2369 0.925335 10.2176 0.872833C10.2007 0.828408 10.1832 0.783984 10.162 0.741125C10.1415 0.699585 10.1002 0.651946 10.0759 0.620709C10.0204 0.548591 9.94461 0.492957 9.87002 0.443669C9.80797 0.40213 9.73498 0.376991 9.6691 0.342869C9.60705 0.310725 9.54564 0.276933 9.48232 0.246602C9.43544 0.224184 9.38856 0.202095 9.34081 0.181572H9.3369L9.33338 0.180171H9.33346C9.31749 0.173248 9.30184 0.166654 9.28579 0.160308C9.24929 0.145884 9.20968 0.136159 9.16912 0.126186L9.14787 0.120746C9.09142 0.106899 9.0328 0.0969265 8.9757 0.0872833L8.9638 0.0853052L8.92859 0.0795358L8.854 0.0663485C8.79978 0.057035 8.74579 0.047639 8.69029 0.0402212C8.55518 0.0209348 8.42733 0.00288472 8.29157 0.000329682L8.27504 0H8.25883C8.15525 0 8.05487 0.00807721 7.96064 0.0164017C7.90131 0.0213469 7.84197 0.0283526 7.77889 0.0364299H7.77857C7.77521 0.0367595 7.77186 0.0372541 7.76851 0.0376662L7.76523 0.0371716C7.76499 0.0371716 7.76475 0.0372541 7.76451 0.0372541C7.68498 0.0256328 7.60304 0.0248086 7.52326 0.0241492H7.51081L7.45091 0.0234898C7.4113 0.0231602 7.3717 0.0231602 7.33209 0.0231602C7.27251 0.0231602 7.21294 0.0238195 7.15361 0.0257976C6.91659 0.0334627 6.71663 0.0437653 6.51132 0.0685738C6.44815 0.0759917 6.38682 0.0841513 6.32685 0.0928879C6.30401 0.0961847 6.28237 0.100141 6.25993 0.103603C6.22351 0.109372 6.18662 0.114977 6.15124 0.121241C6.12641 0.125691 6.10269 0.130636 6.07841 0.135417C6.04671 0.141434 6.01453 0.147285 5.98362 0.153797C5.95807 0.159319 5.93347 0.165418 5.90848 0.171105C5.88085 0.177451 5.85282 0.183468 5.82582 0.190226H5.82622C5.82383 0.190803 5.82127 0.191216 5.81888 0.191875H5.81201C5.80522 0.193606 5.79851 0.195254 5.79173 0.197067C5.55647 0.257234 5.33007 0.34221 5.10703 0.43823C5.12165 0.431718 5.13666 0.42529 5.15159 0.418861C4.63628 0.625571 4.14372 0.875388 3.67424 1.17738C3.44401 1.32549 3.22472 1.49132 3.01047 1.66259C2.78088 1.84614 2.56159 2.04057 2.35285 2.24884C1.95141 2.64974 1.5958 3.09917 1.28165 3.57532C0.9944 4.01058 0.768804 4.47939 0.57012 4.96328C0.344923 5.51121 0.181456 6.07785 0.0872246 6.6651C0.0805965 6.70664 0.0744475 6.74809 0.068618 6.78972C0.068618 6.79408 0.068618 6.79854 0.0685381 6.8029C0.0678993 6.80768 0.0673403 6.81271 0.0667014 6.81757V6.81634C0.063028 6.8437 0.0598337 6.87205 0.0563999 6.89991C0.0532854 6.92555 0.0498516 6.95077 0.0469767 6.97689C0.0433033 7.00928 0.0401889 7.04291 0.0369148 7.07621C0.0345191 7.10077 0.0318039 7.12492 0.0295679 7.15006C0.0261341 7.18921 0.0230995 7.22976 0.0201448 7.27006C0.0186275 7.29059 0.0167908 7.31037 0.0153534 7.3313C0.011121 7.3932 0.00744754 7.45666 0.00425326 7.52186C-0.00261443 7.64804 0.00018056 7.77588 0.00329498 7.90759L0.00425326 7.94105C0.0064094 8.04951 0.0108015 8.21246 0.0223808 8.37376C0.0264535 8.43417 0.0315643 8.49599 0.0374738 8.55854C0.03955 8.58146 0.0424249 8.60495 0.0447407 8.62802C0.0485739 8.66577 0.0522473 8.70336 0.0565596 8.74143V8.74011C0.0571984 8.74539 0.0576776 8.75033 0.0582366 8.75561L0.0581567 8.76937C0.107109 9.17653 0.186726 9.58031 0.29094 9.97543C0.433484 10.5154 0.634085 11.0305 0.873656 11.5321C1.03026 11.8599 1.21401 12.1715 1.41485 12.4729C1.61984 12.7804 1.83881 13.0778 2.0799 13.356C2.3332 13.6487 2.60495 13.9207 2.89444 14.1744C3.23039 14.4687 3.57977 14.7404 3.96061 14.9696C4.29441 15.1706 4.64498 15.3373 5.00066 15.4915C5.39052 15.6605 5.797 15.7778 6.21217 15.8585C6.40064 15.8953 6.59181 15.9191 6.78179 15.9438C6.99269 15.9713 7.20328 15.9899 7.41538 15.998C7.58755 16.0047 7.75908 15.9931 7.93101 15.9841C8.09728 15.9754 8.2629 15.9564 8.42788 15.9335C8.59574 15.9129 8.76264 15.8894 8.92923 15.8595C8.98664 15.8492 9.0431 15.8347 9.09924 15.8202C9.19283 15.7958 9.28858 15.7793 9.38218 15.7558C9.69689 15.677 10.0029 15.5752 10.3064 15.4596C10.5897 15.3521 10.8673 15.2272 11.1359 15.0849C11.3979 14.9465 11.6559 14.7913 11.8886 14.6048C11.8627 14.6254 11.8368 14.646 11.8109 14.667C11.9715 14.5546 12.1294 14.4374 12.2807 14.3119C12.4236 14.1982 12.5639 14.082 12.7009 13.9613C12.7031 13.9593 12.7049 13.9577 12.7071 13.9558C12.7112 13.9522 12.7152 13.9484 12.719 13.9446C12.8188 13.8541 12.9165 13.761 13.0157 13.6693C13.0428 13.6548 13.0681 13.6361 13.0905 13.6132C13.1124 13.5981 13.1323 13.5804 13.1504 13.5598C13.1657 13.5475 13.1797 13.534 13.1931 13.5189C13.1941 13.5179 13.195 13.517 13.196 13.5157C13.2096 13.5048 13.2222 13.4925 13.2334 13.479C13.259 13.4519 13.2839 13.4249 13.3098 13.3985C13.2986 13.4075 13.2873 13.4165 13.2761 13.4252C13.2764 13.4246 13.277 13.4239 13.2774 13.4232C13.3145 13.3914 13.3479 13.3582 13.3837 13.3219C13.4099 13.3009 13.4356 13.2793 13.4601 13.2562C13.5097 13.2169 13.555 13.1751 13.5896 13.1152C13.5915 13.1119 13.5934 13.1091 13.5953 13.1058C13.6099 13.0875 13.6233 13.0688 13.6354 13.0495C13.6414 13.0418 13.647 13.0341 13.6529 13.026C13.6539 13.0247 13.6548 13.0234 13.656 13.0221C13.6782 12.9928 13.7004 12.9632 13.7222 12.9336C13.7247 12.9291 13.7272 12.9246 13.7293 12.9201L13.7343 12.9133C13.7944 12.8624 13.8548 12.8112 13.9061 12.7509C13.9145 12.7411 13.9216 12.7302 13.9298 12.7201C13.9315 12.7177 13.9337 12.7153 13.9353 12.7128C13.989 12.6454 14.0382 12.5742 14.0823 12.4995C14.1273 12.4236 14.1731 12.3476 14.2115 12.2677C14.262 12.1634 14.311 12.0539 14.3284 11.938C14.3443 11.834 14.3469 11.76 14.3291 11.656C14.3164 11.5803 14.2867 11.5001 14.2418 11.4386Z" fill="white"/>
</mask>
<g mask="url(#mask0_56_172)">
<rect width="16" height="16" fill="#98BE42"/>
</g>
</svg>
