<svg width="16" height="16" viewBox="0 0 16 16" fill="none" xmlns="http://www.w3.org/2000/svg">
<path fill-rule="evenodd" clip-rule="evenodd" d="M12.9006 7.48686C12.9653 7.22012 13.0298 6.95424 13.0719 6.68269C13.0826 6.58529 13.0892 6.48788 13.0932 6.39047C13.0947 6.30458 13.0941 6.21861 13.0908 6.13256C13.0825 5.91105 13.0714 5.68862 13.0476 5.46819C13.0102 5.22769 12.9682 4.98636 12.9016 4.75217C12.8393 4.53347 12.764 4.31809 12.6799 4.10678C12.6188 3.97528 12.5559 3.84461 12.493 3.71393C12.4839 3.69499 12.4748 3.67606 12.4657 3.65712C12.457 3.63897 12.4483 3.6208 12.4396 3.60262C12.4091 3.53885 12.3786 3.47503 12.3466 3.41206C12.3157 3.35113 12.2796 3.29459 12.24 3.23963C12.1587 3.13721 12.0796 3.03332 12.0004 2.92936C11.9839 2.90768 11.9674 2.886 11.9509 2.86433L11.9451 2.8572C11.9092 2.82636 11.8729 2.79586 11.8363 2.7656C11.8053 2.74007 11.7748 2.714 11.7443 2.68793C11.7109 2.6594 11.6776 2.63088 11.6436 2.60311C11.5432 2.52949 11.4387 2.46135 11.3311 2.39909C11.2257 2.33799 11.1179 2.28518 11.0073 2.23569C10.9939 2.23022 10.9808 2.22466 10.968 2.21886C10.9211 2.19954 10.8743 2.17965 10.8277 2.15975L10.7801 2.13936C10.555 2.0475 10.3236 1.96701 10.0832 1.92829C9.96901 1.91395 9.85477 1.90085 9.74029 1.89016C9.59272 1.87631 9.44582 1.85699 9.299 1.8371C9.20291 1.82603 9.10669 1.8191 9.01027 1.81215C8.99839 1.8113 8.9865 1.81044 8.97461 1.80958C8.93791 1.80685 8.90131 1.80373 8.86472 1.80061C8.79122 1.79434 8.71781 1.78808 8.64391 1.78504C8.53995 1.78056 8.43517 1.78462 8.33137 1.7891C8.2464 1.79283 8.16201 1.79838 8.07769 1.80725C7.90625 1.83411 7.73606 1.86412 7.56851 1.91146C7.40951 1.95631 7.25166 2.00564 7.09821 2.06732C6.89883 2.15337 6.69995 2.24315 6.50464 2.33749L6.49399 2.34264C6.39036 2.39271 6.28694 2.44268 6.19019 2.50529C6.11119 2.55635 6.036 2.61273 5.9608 2.66918C5.87749 2.73608 5.796 2.80547 5.71558 2.87561C5.64102 2.94056 5.57058 3.01085 5.50037 3.0809C5.48214 3.09909 5.46392 3.11727 5.44565 3.13534C5.39583 3.18455 5.34664 3.23437 5.29746 3.28418C5.25187 3.33035 5.20629 3.37651 5.16022 3.42218C5.0823 3.49936 5.00404 3.57787 4.93249 3.66135C4.82281 3.81389 4.72458 3.97596 4.63338 4.13961C4.62313 4.15801 4.61286 4.1764 4.60258 4.1948C4.51543 4.35082 4.42808 4.50718 4.35467 4.67018C4.25734 4.91067 4.16723 5.15416 4.09204 5.40253C4.08483 5.4263 4.07753 5.45004 4.07024 5.47378C4.03371 5.5926 3.99722 5.71133 3.97241 5.83329C3.94704 5.95772 3.92831 6.08315 3.90982 6.20875C3.90869 6.2178 3.90755 6.22685 3.90641 6.2359C3.89135 6.35598 3.87623 6.47641 3.86621 6.59697C3.85486 6.73078 3.85618 6.86425 3.85825 6.99838C3.86008 7.12846 3.86265 7.25878 3.87119 7.38877C3.8789 7.50591 3.89141 7.62247 3.90443 7.73919C3.92648 7.87664 3.9555 8.0126 3.98493 8.14856C4.02024 8.3113 4.06426 8.46922 4.12097 8.62566C4.22824 8.9222 4.33966 9.21716 4.45415 9.51113C4.48822 9.58732 4.52395 9.66276 4.55993 9.73803C4.57813 9.7762 4.59592 9.81456 4.6137 9.85292C4.64574 9.92203 4.67778 9.99114 4.71222 10.0591C4.72152 10.0774 4.73074 10.0958 4.73995 10.1142C4.7799 10.1939 4.81989 10.2736 4.8665 10.3495C4.92619 10.4466 4.98107 10.5462 5.03537 10.6465C5.06179 10.695 5.08777 10.7438 5.11375 10.7927C5.16645 10.8917 5.21918 10.9909 5.27571 11.0878C5.35894 11.2304 5.44433 11.3724 5.5298 11.5139C5.6922 11.7825 5.86671 12.0436 6.05622 12.294L6.19459 12.4705C6.22339 12.5001 6.25229 12.5296 6.28118 12.5591C6.31007 12.5886 6.33896 12.6182 6.36777 12.6477C6.41274 12.6938 6.45807 12.7395 6.5034 12.7852C6.58339 12.8658 6.66334 12.9465 6.74124 13.0291C6.8079 13.0999 6.87233 13.1729 6.93674 13.2459C6.98632 13.302 7.03589 13.3582 7.08644 13.4133C7.17177 13.5065 7.25429 13.6024 7.33682 13.6984C7.47351 13.8573 7.61023 14.0163 7.75977 14.1628C7.84015 14.2417 7.92817 14.3126 8.01593 14.3833C8.04166 14.404 8.06738 14.4247 8.09287 14.4456C8.14315 14.4868 8.19303 14.5286 8.2429 14.5703C8.26801 14.5913 8.29312 14.6123 8.31828 14.6332C8.41968 14.5515 8.52004 14.4686 8.62039 14.3857C8.66639 14.3476 8.71239 14.3096 8.75848 14.2718C8.8103 14.2292 8.86095 14.1839 8.90928 14.1373C8.93215 14.1152 8.95552 14.0935 8.97889 14.0719C9.00738 14.0455 9.03588 14.0191 9.06348 13.9919C9.16414 13.8924 9.26074 13.7892 9.35738 13.686L9.36615 13.6766C9.43361 13.6047 9.50329 13.5352 9.573 13.4657C9.62109 13.4177 9.66919 13.3697 9.71658 13.321C9.81954 13.2151 9.91347 13.1012 10.0052 12.9854C10.0556 12.9203 10.1068 12.8556 10.1601 12.7929C10.1825 12.7665 10.2053 12.7405 10.2281 12.7145C10.2614 12.6766 10.2947 12.6387 10.3267 12.5995C10.4246 12.4801 10.522 12.36 10.6183 12.239C10.6997 12.1299 10.778 12.0183 10.8562 11.9066C10.9124 11.8264 10.9687 11.7462 11.0261 11.6669C11.0745 11.6 11.1203 11.5314 11.1661 11.4628C11.1895 11.4278 11.2129 11.3927 11.2367 11.3578C11.3074 11.2543 11.3762 11.1497 11.4422 11.0429C11.4579 11.0175 11.4736 10.9921 11.4893 10.9667C11.5531 10.8638 11.6167 10.7612 11.6774 10.6562L11.7403 10.5471C11.835 10.3713 11.9272 10.1943 12.0077 10.0111C12.0679 9.87434 12.1291 9.73808 12.1903 9.60182C12.2647 9.43621 12.3391 9.27059 12.4115 9.10408C12.4394 9.03466 12.4666 8.96491 12.4937 8.89516C12.5139 8.84339 12.534 8.79162 12.5545 8.73998C12.5943 8.63917 12.6316 8.53762 12.6667 8.43523C12.6953 8.33633 12.7224 8.2371 12.7472 8.13679C12.7718 8.03773 12.7946 7.93824 12.8175 7.83875C12.8346 7.76413 12.8518 7.68952 12.8697 7.61509C12.8799 7.57231 12.8903 7.52957 12.9006 7.48686ZM9.63102 0.429016L9.69519 0.437472L9.59148 0.423544L9.63102 0.429016ZM10.9492 0.798674L10.9841 0.813181L10.9154 0.784249L10.9492 0.798674ZM14.469 5.13053C14.4897 5.31125 14.5013 5.49447 14.5107 5.67602C14.5199 5.85401 14.5165 6.03192 14.5107 6.20991C14.5064 6.34599 14.489 6.48258 14.4717 6.61825C14.4669 6.65598 14.4621 6.69364 14.4576 6.73119C14.4317 6.94541 14.4007 7.15822 14.3633 7.37078C14.335 7.53142 14.2972 7.69073 14.2596 7.84933L14.2529 7.87739C14.2143 8.04029 14.1702 8.20095 14.122 8.36137C14.0204 8.69994 13.894 9.03304 13.7637 9.36141C13.6996 9.52286 13.6271 9.67991 13.5544 9.83722C13.535 9.87911 13.5157 9.92101 13.4965 9.96303C13.4686 10.0241 13.4415 10.0854 13.4145 10.1467C13.3699 10.2476 13.3254 10.3484 13.2774 10.4478C13.2516 10.5013 13.2257 10.5548 13.1997 10.6082C13.1471 10.7166 13.0944 10.825 13.0428 10.9341C12.9681 11.0917 12.8919 11.2501 12.8097 11.4042C12.7264 11.5605 12.6292 11.7082 12.5318 11.8561L12.5248 11.8667C12.4268 12.0157 12.3348 12.1677 12.2517 12.3256C12.1724 12.4761 12.0838 12.6247 11.9851 12.7634C11.8707 12.9244 11.7471 13.0783 11.6235 13.2322C11.6072 13.2525 11.5909 13.2728 11.5746 13.2931L11.6257 13.2269L11.5147 13.3706C11.4924 13.3998 11.4702 13.4291 11.4479 13.4583C11.3944 13.5287 11.3408 13.5991 11.2868 13.6691C11.2144 13.7627 11.1412 13.8556 11.0635 13.9454C10.9992 14.0197 10.936 14.0948 10.8729 14.1698L10.8656 14.1785C10.6497 14.4347 10.4325 14.6907 10.1881 14.9203C10.0382 15.0611 9.87542 15.1896 9.71102 15.3131C9.64959 15.3593 9.58676 15.4036 9.52394 15.448C9.47434 15.483 9.42475 15.5181 9.37585 15.554C9.33202 15.5893 9.28841 15.6249 9.24481 15.6605C9.1493 15.7385 9.05382 15.8164 8.95604 15.8916C8.87297 15.9398 8.78344 15.964 8.68727 15.9643L8.54559 15.9453C8.50903 15.9353 8.4738 15.9212 8.44047 15.9038C8.40798 15.9072 8.37556 15.9087 8.34107 15.9056C8.26497 15.8987 8.18514 15.8892 8.11152 15.8656C8.00847 15.8326 7.90796 15.7846 7.80997 15.7379L7.80312 15.7346C7.76049 15.7144 7.71755 15.6951 7.67465 15.6758C7.56832 15.628 7.46232 15.5804 7.36225 15.5191C7.23501 15.4412 7.12324 15.3443 7.01135 15.2472C6.96717 15.2089 6.92296 15.1706 6.87778 15.1334C6.76304 15.0389 6.64632 14.9471 6.52901 14.8559C6.5005 14.8341 6.47204 14.8122 6.44357 14.7903C6.34265 14.7128 6.24163 14.6352 6.13805 14.5613C5.96586 14.4384 5.79616 14.3135 5.64818 14.1617L5.6408 14.1541C5.58449 14.0963 5.52824 14.0385 5.47367 13.979C5.45803 13.962 5.44216 13.945 5.42626 13.928C5.38462 13.8834 5.34281 13.8387 5.30447 13.7918C5.25348 13.7293 5.20356 13.6661 5.15365 13.6029C5.09095 13.5235 5.02826 13.4441 4.9635 13.3664C4.919 13.313 4.87275 13.2613 4.8265 13.2097C4.76401 13.1398 4.70154 13.07 4.64341 12.9961C4.50903 12.8249 4.38029 12.6495 4.25867 12.4689C4.1645 12.3291 4.07412 12.1859 3.98409 12.0433L3.97457 12.0283C3.88172 11.8811 3.78953 11.7338 3.70298 11.583C3.67739 11.5385 3.65192 11.4939 3.62644 11.4493C3.56306 11.3384 3.49967 11.2274 3.43438 11.1176C3.40378 11.0663 3.37243 11.0153 3.34106 10.9642C3.28276 10.8694 3.22441 10.7745 3.17083 10.6773C3.08785 10.5263 3.01258 10.3732 2.94368 10.2153C2.89165 10.096 2.8431 9.97552 2.79455 9.85499C2.76753 9.78792 2.74051 9.72084 2.71289 9.65397C2.70751 9.64137 2.70212 9.62877 2.69674 9.61617C2.63101 9.46233 2.56529 9.30852 2.5092 9.15067C2.4515 8.98761 2.40516 8.82238 2.36006 8.65542C2.35323 8.63012 2.34635 8.60485 2.33947 8.5796C2.30267 8.44446 2.26597 8.30966 2.23803 8.17227C2.20705 8.0196 2.18089 7.86623 2.15471 7.71267C2.15258 7.70021 2.15046 7.68774 2.14833 7.67527C2.11555 7.48189 2.09244 7.28724 2.06931 7.09246C2.06664 7.06997 2.06397 7.04748 2.06128 7.02499C2.04064 6.85206 2.02397 6.67755 2.01369 6.50388C2.00346 6.3307 2.00186 6.1566 2.00027 5.98313L2.0001 5.96419C1.99819 5.74723 2.02397 5.53169 2.06584 5.31896C2.09833 5.1539 2.14154 4.99191 2.18486 4.82954C2.18819 4.81707 2.19151 4.8046 2.19483 4.79212C2.24864 4.5896 2.3109 4.38897 2.40234 4.19963C2.4762 4.04684 2.55421 3.89612 2.63703 3.74806C2.71556 3.60755 2.8067 3.474 2.89741 3.34107C2.90314 3.33268 2.90886 3.32429 2.91459 3.3159C3.13013 2.99938 3.3499 2.68584 3.60333 2.39793C3.71956 2.26603 3.83604 2.13554 3.95973 2.01045C3.96749 2.00261 3.97526 1.99476 3.98302 1.98691C4.09533 1.87341 4.20819 1.75936 4.33063 1.65662C4.36336 1.62907 4.3967 1.60228 4.43004 1.5755C4.46282 1.54917 4.49559 1.52284 4.52777 1.49579C4.62526 1.4138 4.72474 1.33016 4.82994 1.25869C4.97484 1.16017 5.12584 1.07106 5.27685 0.981936C5.2862 0.976421 5.29554 0.970906 5.30489 0.965389C5.64163 0.766591 5.98634 0.588187 6.35326 0.451399C6.50257 0.395689 6.65502 0.346197 6.8069 0.297617C6.97535 0.243731 7.14472 0.191917 7.3179 0.155855C7.38506 0.141811 7.45246 0.130029 7.51991 0.118236C7.54006 0.114714 7.56022 0.111191 7.58037 0.107606C7.61365 0.101681 7.64686 0.0952582 7.68008 0.0888345C7.7282 0.0795295 7.77632 0.0702228 7.82468 0.0624249C7.95823 0.0407876 8.0922 0.0227979 8.22725 0.0135959C8.30377 0.00842674 8.3806 0.00696597 8.45731 0.00550768C8.46795 0.00530543 8.47859 0.00510323 8.48922 0.00489119C8.6726 0.00124352 8.85598 0.000580311 9.03935 0H9.06986C9.23351 0 9.39682 0.00447668 9.55931 0.0260311C9.69005 0.0434404 9.81805 0.0612642 9.94679 0.0888705C10.0307 0.106943 10.1146 0.124601 10.1985 0.142093C10.3613 0.176166 10.5201 0.216788 10.6776 0.270839C10.7476 0.294777 10.8198 0.311025 10.8921 0.327264C10.9789 0.346793 11.0657 0.366309 11.1485 0.399171C11.2552 0.441478 11.3566 0.493664 11.4582 0.545898C11.5253 0.580459 11.5925 0.615041 11.6614 0.646798C11.7667 0.695403 11.8667 0.755843 11.9661 0.815986C11.9951 0.833497 12.024 0.850983 12.053 0.868145C12.1768 0.941596 12.2955 1.02342 12.4104 1.10997C12.5055 1.18168 12.6 1.2538 12.687 1.33513C12.7417 1.38608 12.7887 1.44534 12.8351 1.50391C12.8407 1.511 12.8463 1.51808 12.8519 1.52514C12.8754 1.55468 12.8989 1.58417 12.9225 1.61368C13.0351 1.75458 13.148 1.8958 13.2501 2.04427C13.3487 2.18719 13.441 2.33376 13.5335 2.48075C13.5386 2.48879 13.5436 2.49684 13.5487 2.50488C13.6343 2.64095 13.7198 2.77687 13.7934 2.91988C13.8861 3.10046 13.9651 3.28884 14.0436 3.47602L14.0512 3.49397C14.0981 3.60585 14.1384 3.72093 14.1786 3.83581C14.1955 3.88436 14.2125 3.93288 14.23 3.9811C14.2895 4.14516 14.3331 4.31411 14.3698 4.48456C14.3866 4.56325 14.3988 4.64287 14.4109 4.7224C14.4123 4.73161 14.4137 4.74081 14.4151 4.75001L14.4186 4.77251C14.4368 4.8915 14.4552 5.01098 14.469 5.13053ZM10.3106 6.25124L10.3186 6.30571C10.3292 6.37651 10.3402 6.44987 10.3417 6.52225C10.3425 6.56519 10.3425 6.60805 10.3422 6.65108C10.3412 6.75526 10.3255 6.8606 10.3103 6.96251L10.3101 6.96378C10.3055 6.99412 10.301 7.02438 10.2968 7.05456C10.2905 7.09991 10.2798 7.14575 10.2641 7.19474C10.252 7.24573 10.2395 7.29116 10.2261 7.33352C10.174 7.49617 10.1149 7.63255 10.0455 7.75035C10.0104 7.80971 9.97233 7.86699 9.93238 7.92071L9.92127 7.93564C9.86863 8.00668 9.81424 8.08005 9.75148 8.14107C9.68782 8.20324 9.61503 8.26252 9.52898 8.32245C9.47451 8.36067 9.42833 8.38728 9.38365 8.40652L9.34038 8.42542C9.26311 8.45941 9.1832 8.49448 9.10046 8.51611C8.99244 8.54455 8.89395 8.56138 8.79936 8.56743C8.7798 8.56867 8.76015 8.56925 8.74042 8.56925C8.69225 8.56925 8.63994 8.56577 8.57934 8.55922L8.57163 8.56146L8.55543 8.5636C8.5158 8.56884 8.47636 8.57406 8.43667 8.57953C8.39066 8.58359 8.34291 8.58567 8.2949 8.58567C8.19277 8.58567 8.08558 8.5768 7.95766 8.55773C7.75223 8.52631 7.56827 8.46513 7.41093 8.37593C7.32172 8.32569 7.23194 8.26177 7.12856 8.17481C7.03867 8.09938 6.97195 8.01249 6.90142 7.92063L6.90092 7.91997C6.77134 7.75077 6.68346 7.56647 6.63978 7.37232C6.597 7.18198 6.5703 7.02488 6.5558 6.87781C6.54096 6.72643 6.54817 6.56933 6.57909 6.36863C6.5926 6.28034 6.61433 6.19512 6.6455 6.10799L6.65006 6.09506C6.65901 6.06936 6.66805 6.04357 6.67841 6.01837C6.68522 6.002 6.6918 5.98521 6.69844 5.96825C6.69964 5.9652 6.70083 5.96215 6.70203 5.9591L6.70251 5.95789C6.72789 5.89302 6.75408 5.8261 6.79207 5.76859C6.85275 5.67682 6.92355 5.59143 6.99683 5.52179C7.17806 5.35093 7.39418 5.22235 7.60069 5.10878C7.72197 5.04179 7.88305 4.95897 8.05374 4.91197C8.18108 4.87715 8.31687 4.84308 8.45308 4.84308C8.48649 4.84308 8.51915 4.84523 8.55008 4.84938C8.63414 4.86032 8.7211 4.87176 8.80889 4.88685C9.0358 4.92623 9.27231 5.02272 9.49283 5.16573C9.5919 5.22965 9.67447 5.2905 9.74518 5.35176C9.79045 5.39081 9.82809 5.43765 9.86481 5.48349C9.908 5.52046 9.94373 5.55678 9.97391 5.5945C10.0421 5.67972 10.1202 5.78318 10.1832 5.90496C10.2367 6.00768 10.2937 6.12905 10.3106 6.25124Z" fill="white"/>
<mask id="mask0_56_169" style="mask-type:luminance" maskUnits="userSpaceOnUse" x="2" y="0" width="13" height="16">
<path fill-rule="evenodd" clip-rule="evenodd" d="M12.9006 7.48686C12.9653 7.22012 13.0298 6.95424 13.0719 6.68269C13.0826 6.58529 13.0892 6.48788 13.0932 6.39047C13.0947 6.30458 13.0941 6.21861 13.0908 6.13256C13.0825 5.91105 13.0714 5.68862 13.0476 5.46819C13.0102 5.22769 12.9682 4.98636 12.9016 4.75217C12.8393 4.53347 12.764 4.31809 12.6799 4.10678C12.6188 3.97528 12.5559 3.84461 12.493 3.71393C12.4839 3.69499 12.4748 3.67606 12.4657 3.65712C12.457 3.63897 12.4483 3.6208 12.4396 3.60262C12.4091 3.53885 12.3786 3.47503 12.3466 3.41206C12.3157 3.35113 12.2796 3.29459 12.24 3.23963C12.1587 3.13721 12.0796 3.03332 12.0004 2.92936C11.9839 2.90768 11.9674 2.886 11.9509 2.86433L11.9451 2.8572C11.9092 2.82636 11.8729 2.79586 11.8363 2.7656C11.8053 2.74007 11.7748 2.714 11.7443 2.68793C11.7109 2.6594 11.6776 2.63088 11.6436 2.60311C11.5432 2.52949 11.4387 2.46135 11.3311 2.39909C11.2257 2.33799 11.1179 2.28518 11.0073 2.23569C10.9939 2.23022 10.9808 2.22466 10.968 2.21886C10.9211 2.19954 10.8743 2.17965 10.8277 2.15975L10.7801 2.13936C10.555 2.0475 10.3236 1.96701 10.0832 1.92829C9.96901 1.91395 9.85477 1.90085 9.74029 1.89016C9.59272 1.87631 9.44582 1.85699 9.299 1.8371C9.20291 1.82603 9.10669 1.8191 9.01027 1.81215C8.99839 1.8113 8.9865 1.81044 8.97461 1.80958C8.93791 1.80685 8.90131 1.80373 8.86472 1.80061C8.79122 1.79434 8.71781 1.78808 8.64391 1.78504C8.53995 1.78056 8.43517 1.78462 8.33137 1.7891C8.2464 1.79283 8.16201 1.79838 8.07769 1.80725C7.90625 1.83411 7.73606 1.86412 7.56851 1.91146C7.40951 1.95631 7.25166 2.00564 7.09821 2.06732C6.89883 2.15337 6.69995 2.24315 6.50464 2.33749L6.49399 2.34264C6.39036 2.39271 6.28694 2.44268 6.19019 2.50529C6.11119 2.55635 6.036 2.61273 5.9608 2.66918C5.87749 2.73608 5.796 2.80547 5.71558 2.87561C5.64102 2.94056 5.57058 3.01085 5.50037 3.0809C5.48214 3.09909 5.46392 3.11727 5.44565 3.13534C5.39583 3.18455 5.34664 3.23437 5.29746 3.28418C5.25187 3.33035 5.20629 3.37651 5.16022 3.42218C5.0823 3.49936 5.00404 3.57787 4.93249 3.66135C4.82281 3.81389 4.72458 3.97596 4.63338 4.13961C4.62313 4.15801 4.61286 4.1764 4.60258 4.1948C4.51543 4.35082 4.42808 4.50718 4.35467 4.67018C4.25734 4.91067 4.16723 5.15416 4.09204 5.40253C4.08483 5.4263 4.07753 5.45004 4.07024 5.47378C4.03371 5.5926 3.99722 5.71133 3.97241 5.83329C3.94704 5.95772 3.92831 6.08315 3.90982 6.20875C3.90869 6.2178 3.90755 6.22685 3.90641 6.2359C3.89135 6.35598 3.87623 6.47641 3.86621 6.59697C3.85486 6.73078 3.85618 6.86425 3.85825 6.99838C3.86008 7.12846 3.86265 7.25878 3.87119 7.38877C3.8789 7.50591 3.89141 7.62247 3.90443 7.73919C3.92648 7.87664 3.9555 8.0126 3.98493 8.14856C4.02024 8.3113 4.06426 8.46922 4.12097 8.62566C4.22824 8.9222 4.33966 9.21716 4.45415 9.51113C4.48822 9.58732 4.52395 9.66276 4.55993 9.73803C4.57813 9.7762 4.59592 9.81456 4.6137 9.85292C4.64574 9.92203 4.67778 9.99114 4.71222 10.0591C4.72152 10.0774 4.73074 10.0958 4.73995 10.1142C4.7799 10.1939 4.81989 10.2736 4.8665 10.3495C4.92619 10.4466 4.98107 10.5462 5.03537 10.6465C5.06179 10.695 5.08777 10.7438 5.11375 10.7927C5.16645 10.8917 5.21918 10.9909 5.27571 11.0878C5.35894 11.2304 5.44433 11.3724 5.5298 11.5139C5.6922 11.7825 5.86671 12.0436 6.05622 12.294L6.19459 12.4705C6.22339 12.5001 6.25229 12.5296 6.28118 12.5591C6.31007 12.5886 6.33896 12.6182 6.36777 12.6477C6.41274 12.6938 6.45807 12.7395 6.5034 12.7852C6.58339 12.8658 6.66334 12.9465 6.74124 13.0291C6.8079 13.0999 6.87233 13.1729 6.93674 13.2459C6.98632 13.302 7.03589 13.3582 7.08644 13.4133C7.17177 13.5065 7.25429 13.6024 7.33682 13.6984C7.47351 13.8573 7.61023 14.0163 7.75977 14.1628C7.84015 14.2417 7.92817 14.3126 8.01593 14.3833C8.04166 14.404 8.06738 14.4247 8.09287 14.4456C8.14315 14.4868 8.19303 14.5286 8.2429 14.5703C8.26801 14.5913 8.29312 14.6123 8.31828 14.6332C8.41968 14.5515 8.52004 14.4686 8.62039 14.3857C8.66639 14.3476 8.71239 14.3096 8.75848 14.2718C8.8103 14.2292 8.86095 14.1839 8.90928 14.1373C8.93215 14.1152 8.95552 14.0935 8.97889 14.0719C9.00738 14.0455 9.03588 14.0191 9.06348 13.9919C9.16414 13.8924 9.26074 13.7892 9.35738 13.686L9.36615 13.6766C9.43361 13.6047 9.50329 13.5352 9.573 13.4657C9.62109 13.4177 9.66919 13.3697 9.71658 13.321C9.81954 13.2151 9.91347 13.1012 10.0052 12.9854C10.0556 12.9203 10.1068 12.8556 10.1601 12.7929C10.1825 12.7665 10.2053 12.7405 10.2281 12.7145C10.2614 12.6766 10.2947 12.6387 10.3267 12.5995C10.4246 12.4801 10.522 12.36 10.6183 12.239C10.6997 12.1299 10.778 12.0183 10.8562 11.9066C10.9124 11.8264 10.9687 11.7462 11.0261 11.6669C11.0745 11.6 11.1203 11.5314 11.1661 11.4628C11.1895 11.4278 11.2129 11.3927 11.2367 11.3578C11.3074 11.2543 11.3762 11.1497 11.4422 11.0429C11.4579 11.0175 11.4736 10.9921 11.4893 10.9667C11.5531 10.8638 11.6167 10.7612 11.6774 10.6562L11.7403 10.5471C11.835 10.3713 11.9272 10.1943 12.0077 10.0111C12.0679 9.87434 12.1291 9.73808 12.1903 9.60182C12.2647 9.43621 12.3391 9.27059 12.4115 9.10408C12.4394 9.03466 12.4666 8.96491 12.4937 8.89516C12.5139 8.84339 12.534 8.79162 12.5545 8.73998C12.5943 8.63917 12.6316 8.53762 12.6667 8.43523C12.6953 8.33633 12.7224 8.2371 12.7472 8.13679C12.7718 8.03773 12.7946 7.93824 12.8175 7.83875C12.8346 7.76413 12.8518 7.68952 12.8697 7.61509C12.8799 7.57231 12.8903 7.52957 12.9006 7.48686ZM9.63102 0.429016L9.69519 0.437472L9.59148 0.423544L9.63102 0.429016ZM10.9492 0.798674L10.9841 0.813181L10.9154 0.784249L10.9492 0.798674ZM14.469 5.13053C14.4897 5.31125 14.5013 5.49447 14.5107 5.67602C14.5199 5.85401 14.5165 6.03192 14.5107 6.20991C14.5064 6.34599 14.489 6.48258 14.4717 6.61825C14.4669 6.65598 14.4621 6.69364 14.4576 6.73119C14.4317 6.94541 14.4007 7.15822 14.3633 7.37078C14.335 7.53142 14.2972 7.69073 14.2596 7.84933L14.2529 7.87739C14.2143 8.04029 14.1702 8.20095 14.122 8.36137C14.0204 8.69994 13.894 9.03304 13.7637 9.36141C13.6996 9.52286 13.6271 9.67991 13.5544 9.83722C13.535 9.87911 13.5157 9.92101 13.4965 9.96303C13.4686 10.0241 13.4415 10.0854 13.4145 10.1467C13.3699 10.2476 13.3254 10.3484 13.2774 10.4478C13.2516 10.5013 13.2257 10.5548 13.1997 10.6082C13.1471 10.7166 13.0944 10.825 13.0428 10.9341C12.9681 11.0917 12.8919 11.2501 12.8097 11.4042C12.7264 11.5605 12.6292 11.7082 12.5318 11.8561L12.5248 11.8667C12.4268 12.0157 12.3348 12.1677 12.2517 12.3256C12.1724 12.4761 12.0838 12.6247 11.9851 12.7634C11.8707 12.9244 11.7471 13.0783 11.6235 13.2322C11.6072 13.2525 11.5909 13.2728 11.5746 13.2931L11.6257 13.2269L11.5147 13.3706C11.4924 13.3998 11.4702 13.4291 11.4479 13.4583C11.3944 13.5287 11.3408 13.5991 11.2868 13.6691C11.2144 13.7627 11.1412 13.8556 11.0635 13.9454C10.9992 14.0197 10.936 14.0948 10.8729 14.1698L10.8656 14.1785C10.6497 14.4347 10.4325 14.6907 10.1881 14.9203C10.0382 15.0611 9.87542 15.1896 9.71102 15.3131C9.64959 15.3593 9.58676 15.4036 9.52394 15.448C9.47434 15.483 9.42475 15.5181 9.37585 15.554C9.33202 15.5893 9.28841 15.6249 9.24481 15.6605C9.1493 15.7385 9.05382 15.8164 8.95604 15.8916C8.87297 15.9398 8.78344 15.964 8.68727 15.9643L8.54559 15.9453C8.50903 15.9353 8.4738 15.9212 8.44047 15.9038C8.40798 15.9072 8.37556 15.9087 8.34107 15.9056C8.26497 15.8987 8.18514 15.8892 8.11152 15.8656C8.00847 15.8326 7.90796 15.7846 7.80997 15.7379L7.80312 15.7346C7.76049 15.7144 7.71755 15.6951 7.67465 15.6758C7.56832 15.628 7.46232 15.5804 7.36225 15.5191C7.23501 15.4412 7.12324 15.3443 7.01135 15.2472C6.96717 15.2089 6.92296 15.1706 6.87778 15.1334C6.76304 15.0389 6.64632 14.9471 6.52901 14.8559C6.5005 14.8341 6.47204 14.8122 6.44357 14.7903C6.34265 14.7128 6.24163 14.6352 6.13805 14.5613C5.96586 14.4384 5.79616 14.3135 5.64818 14.1617L5.6408 14.1541C5.58449 14.0963 5.52824 14.0385 5.47367 13.979C5.45803 13.962 5.44216 13.945 5.42626 13.928C5.38462 13.8834 5.34281 13.8387 5.30447 13.7918C5.25348 13.7293 5.20356 13.6661 5.15365 13.6029C5.09095 13.5235 5.02826 13.4441 4.9635 13.3664C4.919 13.313 4.87275 13.2613 4.8265 13.2097C4.76401 13.1398 4.70154 13.07 4.64341 12.9961C4.50903 12.8249 4.38029 12.6495 4.25867 12.4689C4.1645 12.3291 4.07412 12.1859 3.98409 12.0433L3.97457 12.0283C3.88172 11.8811 3.78953 11.7338 3.70298 11.583C3.67739 11.5385 3.65192 11.4939 3.62644 11.4493C3.56306 11.3384 3.49967 11.2274 3.43438 11.1176C3.40378 11.0663 3.37243 11.0153 3.34106 10.9642C3.28276 10.8694 3.22441 10.7745 3.17083 10.6773C3.08785 10.5263 3.01258 10.3732 2.94368 10.2153C2.89165 10.096 2.8431 9.97552 2.79455 9.85499C2.76753 9.78792 2.74051 9.72084 2.71289 9.65397C2.70751 9.64137 2.70212 9.62877 2.69674 9.61617C2.63101 9.46233 2.56529 9.30852 2.5092 9.15067C2.4515 8.98761 2.40516 8.82238 2.36006 8.65542C2.35323 8.63012 2.34635 8.60485 2.33947 8.5796C2.30267 8.44446 2.26597 8.30966 2.23803 8.17227C2.20705 8.0196 2.18089 7.86623 2.15471 7.71267C2.15258 7.70021 2.15046 7.68774 2.14833 7.67527C2.11555 7.48189 2.09244 7.28724 2.06931 7.09246C2.06664 7.06997 2.06397 7.04748 2.06128 7.02499C2.04064 6.85206 2.02397 6.67755 2.01369 6.50388C2.00346 6.3307 2.00186 6.1566 2.00027 5.98313L2.0001 5.96419C1.99819 5.74723 2.02397 5.53169 2.06584 5.31896C2.09833 5.1539 2.14154 4.99191 2.18486 4.82954C2.18819 4.81707 2.19151 4.8046 2.19483 4.79212C2.24864 4.5896 2.3109 4.38897 2.40234 4.19963C2.4762 4.04684 2.55421 3.89612 2.63703 3.74806C2.71556 3.60755 2.8067 3.474 2.89741 3.34107C2.90314 3.33268 2.90886 3.32429 2.91459 3.3159C3.13013 2.99938 3.3499 2.68584 3.60333 2.39793C3.71956 2.26603 3.83604 2.13554 3.95973 2.01045C3.96749 2.00261 3.97526 1.99476 3.98302 1.98691C4.09533 1.87341 4.20819 1.75936 4.33063 1.65662C4.36336 1.62907 4.3967 1.60228 4.43004 1.5755C4.46282 1.54917 4.49559 1.52284 4.52777 1.49579C4.62526 1.4138 4.72474 1.33016 4.82994 1.25869C4.97484 1.16017 5.12584 1.07106 5.27685 0.981936C5.2862 0.976421 5.29554 0.970906 5.30489 0.965389C5.64163 0.766591 5.98634 0.588187 6.35326 0.451399C6.50257 0.395689 6.65502 0.346197 6.8069 0.297617C6.97535 0.243731 7.14472 0.191917 7.3179 0.155855C7.38506 0.141811 7.45246 0.130029 7.51991 0.118236C7.54006 0.114714 7.56022 0.111191 7.58037 0.107606C7.61365 0.101681 7.64686 0.0952582 7.68008 0.0888345C7.7282 0.0795295 7.77632 0.0702228 7.82468 0.0624249C7.95823 0.0407876 8.0922 0.0227979 8.22725 0.0135959C8.30377 0.00842674 8.3806 0.00696597 8.45731 0.00550768C8.46795 0.00530543 8.47859 0.00510323 8.48922 0.00489119C8.6726 0.00124352 8.85598 0.000580311 9.03935 0H9.06986C9.23351 0 9.39682 0.00447668 9.55931 0.0260311C9.69005 0.0434404 9.81805 0.0612642 9.94679 0.0888705C10.0307 0.106943 10.1146 0.124601 10.1985 0.142093C10.3613 0.176166 10.5201 0.216788 10.6776 0.270839C10.7476 0.294777 10.8198 0.311025 10.8921 0.327264C10.9789 0.346793 11.0657 0.366309 11.1485 0.399171C11.2552 0.441478 11.3566 0.493664 11.4582 0.545898C11.5253 0.580459 11.5925 0.615041 11.6614 0.646798C11.7667 0.695403 11.8667 0.755843 11.9661 0.815986C11.9951 0.833497 12.024 0.850983 12.053 0.868145C12.1768 0.941596 12.2955 1.02342 12.4104 1.10997C12.5055 1.18168 12.6 1.2538 12.687 1.33513C12.7417 1.38608 12.7887 1.44534 12.8351 1.50391C12.8407 1.511 12.8463 1.51808 12.8519 1.52514C12.8754 1.55468 12.8989 1.58417 12.9225 1.61368C13.0351 1.75458 13.148 1.8958 13.2501 2.04427C13.3487 2.18719 13.441 2.33376 13.5335 2.48075C13.5386 2.48879 13.5436 2.49684 13.5487 2.50488C13.6343 2.64095 13.7198 2.77687 13.7934 2.91988C13.8861 3.10046 13.9651 3.28884 14.0436 3.47602L14.0512 3.49397C14.0981 3.60585 14.1384 3.72093 14.1786 3.83581C14.1955 3.88436 14.2125 3.93288 14.23 3.9811C14.2895 4.14516 14.3331 4.31411 14.3698 4.48456C14.3866 4.56325 14.3988 4.64287 14.4109 4.7224C14.4123 4.73161 14.4137 4.74081 14.4151 4.75001L14.4186 4.77251C14.4368 4.8915 14.4552 5.01098 14.469 5.13053ZM10.3106 6.25124L10.3186 6.30571C10.3292 6.37651 10.3402 6.44987 10.3417 6.52225C10.3425 6.56519 10.3425 6.60805 10.3422 6.65108C10.3412 6.75526 10.3255 6.8606 10.3103 6.96251L10.3101 6.96378C10.3055 6.99412 10.301 7.02438 10.2968 7.05456C10.2905 7.09991 10.2798 7.14575 10.2641 7.19474C10.252 7.24573 10.2395 7.29116 10.2261 7.33352C10.174 7.49617 10.1149 7.63255 10.0455 7.75035C10.0104 7.80971 9.97233 7.86699 9.93238 7.92071L9.92127 7.93564C9.86863 8.00668 9.81424 8.08005 9.75148 8.14107C9.68782 8.20324 9.61503 8.26252 9.52898 8.32245C9.47451 8.36067 9.42833 8.38728 9.38365 8.40652L9.34038 8.42542C9.26311 8.45941 9.1832 8.49448 9.10046 8.51611C8.99244 8.54455 8.89395 8.56138 8.79936 8.56743C8.7798 8.56867 8.76015 8.56925 8.74042 8.56925C8.69225 8.56925 8.63994 8.56577 8.57934 8.55922L8.57163 8.56146L8.55543 8.5636C8.5158 8.56884 8.47636 8.57406 8.43667 8.57953C8.39066 8.58359 8.34291 8.58567 8.2949 8.58567C8.19277 8.58567 8.08558 8.5768 7.95766 8.55773C7.75223 8.52631 7.56827 8.46513 7.41093 8.37593C7.32172 8.32569 7.23194 8.26177 7.12856 8.17481C7.03867 8.09938 6.97195 8.01249 6.90142 7.92063L6.90092 7.91997C6.77134 7.75077 6.68346 7.56647 6.63978 7.37232C6.597 7.18198 6.5703 7.02488 6.5558 6.87781C6.54096 6.72643 6.54817 6.56933 6.57909 6.36863C6.5926 6.28034 6.61433 6.19512 6.6455 6.10799L6.65006 6.09506C6.65901 6.06936 6.66805 6.04357 6.67841 6.01837C6.68522 6.002 6.6918 5.98521 6.69844 5.96825C6.69964 5.9652 6.70083 5.96215 6.70203 5.9591L6.70251 5.95789C6.72789 5.89302 6.75408 5.8261 6.79207 5.76859C6.85275 5.67682 6.92355 5.59143 6.99683 5.52179C7.17806 5.35093 7.39418 5.22235 7.60069 5.10878C7.72197 5.04179 7.88305 4.95897 8.05374 4.91197C8.18108 4.87715 8.31687 4.84308 8.45308 4.84308C8.48649 4.84308 8.51915 4.84523 8.55008 4.84938C8.63414 4.86032 8.7211 4.87176 8.80889 4.88685C9.0358 4.92623 9.27231 5.02272 9.49283 5.16573C9.5919 5.22965 9.67447 5.2905 9.74518 5.35176C9.79045 5.39081 9.82809 5.43765 9.86481 5.48349C9.908 5.52046 9.94373 5.55678 9.97391 5.5945C10.0421 5.67972 10.1202 5.78318 10.1832 5.90496C10.2367 6.00768 10.2937 6.12905 10.3106 6.25124Z" fill="white"/>
</mask>
<g mask="url(#mask0_56_169)">
<rect width="16" height="16" fill="#98BE42"/>
</g>
</svg>
